<svg width="67" height="20" viewBox="0 0 67 20" fill="none" xmlns="http://www.w3.org/2000/svg">
    <path d="M7.22146 9.76868C6.71139 10.4049 6.25069 11.0411 5.84483 11.6664C5.77901 11.7651 5.71868 11.8638 5.65835 11.957C5.59802 12.0503 5.54317 12.1435 5.48284 12.2368C5.45542 12.2806 5.43348 12.3245 5.40606 12.3629C5.38412 12.3958 5.36218 12.4342 5.34024 12.4671C5.30733 12.5165 5.27991 12.5713 5.247 12.6207C5.18119 12.7359 5.11537 12.8565 5.04956 12.9717C4.07878 11.8857 3.23415 10.7888 2.54309 9.7248C3.27254 8.66627 4.15008 7.58032 5.1428 6.52179C5.15377 6.53824 5.15925 6.56018 5.17022 6.57664C5.19216 6.62051 5.21958 6.66987 5.24152 6.71924C5.26894 6.77408 5.30185 6.82893 5.32927 6.88377C5.35121 6.92765 5.37863 6.97153 5.40057 7.0154C5.46639 7.13607 5.53769 7.25673 5.60899 7.37739C5.63093 7.42127 5.65835 7.46514 5.68577 7.50354L5.69126 7.50902C5.70771 7.53644 5.72416 7.56387 5.74062 7.59129C5.76256 7.62968 5.78998 7.67356 5.81192 7.71195C5.84482 7.7668 5.87773 7.82164 5.91613 7.87649C5.94903 7.93134 5.98743 7.99167 6.02033 8.04651C6.05324 8.10136 6.09163 8.16169 6.13003 8.21654C6.13003 8.21654 6.13003 8.21653 6.13003 8.22202C6.19584 8.32623 6.26166 8.42495 6.33296 8.52916C6.38232 8.60046 6.42619 8.67176 6.47556 8.73757C6.54686 8.8363 6.61816 8.9405 6.68945 9.04471C6.69494 9.05568 6.70591 9.06665 6.71139 9.07213C6.74979 9.12149 6.78818 9.17634 6.82109 9.23119C6.83206 9.24216 6.83754 9.25861 6.84851 9.26958C6.8869 9.31894 6.91981 9.3683 6.9582 9.41766C6.99111 9.46703 7.0295 9.51639 7.06241 9.56026C7.07338 9.57123 7.07886 9.58769 7.08983 9.59866C7.12822 9.6535 7.1721 9.70835 7.21598 9.76319C7.22146 9.76319 7.22146 9.76868 7.22146 9.76868Z" fill="black"/>
    <path d="M14.0827 3.53274C14.0498 3.54919 14.0223 3.57113 13.9894 3.59307C13.9401 3.62598 13.8907 3.6534 13.8468 3.68631C13.8084 3.70825 13.7701 3.73567 13.7317 3.76309C13.7042 3.78503 13.6713 3.80149 13.6439 3.82342C13.5562 3.88375 13.4684 3.9386 13.3806 3.99893C13.3423 4.02635 13.2984 4.05378 13.26 4.0812C13.1229 4.17444 12.9858 4.27316 12.8486 4.37188C12.8212 4.39382 12.7883 4.41576 12.7609 4.4377C12.5086 4.62418 12.2563 4.81614 12.004 5.01358C11.9656 5.04101 11.9272 5.07391 11.8943 5.10134C11.8285 5.1507 11.7682 5.20006 11.7024 5.25491C11.6585 5.2933 11.6091 5.33169 11.5652 5.3646C11.5214 5.39751 11.4775 5.4359 11.4336 5.47429C11.3678 5.52914 11.302 5.58398 11.2362 5.63883C10.2818 4.82711 9.32203 4.12508 8.38965 3.53274C9.35494 2.77038 10.3147 2.11771 11.2362 1.59119C12.1631 2.11771 13.1174 2.77038 14.0827 3.53274Z" fill="black"/>
    <path d="M14.0443 16.2021C13.101 16.9755 12.1522 17.6391 11.2362 18.1876C10.3203 17.6391 9.37694 16.97 8.4281 16.2021C8.4994 16.1528 8.5707 16.1089 8.642 16.0595C8.67491 16.0376 8.7133 16.0102 8.74621 15.9882C8.88332 15.895 9.02592 15.7963 9.16304 15.6921C9.26725 15.6208 9.36597 15.544 9.47018 15.4672C9.54148 15.4124 9.61278 15.363 9.68408 15.3082C9.72795 15.2752 9.77183 15.2423 9.81571 15.2094C9.82119 15.2039 9.82668 15.2039 9.83216 15.1985C9.87604 15.1656 9.91991 15.1272 9.96928 15.0943C10.0899 15.001 10.2051 14.9078 10.3258 14.8145C10.3697 14.7761 10.419 14.7378 10.4629 14.7048C10.4958 14.6774 10.5287 14.65 10.5616 14.6226C10.6055 14.5897 10.6494 14.5513 10.6932 14.5129C10.8742 14.3593 11.0552 14.2057 11.2362 14.0467C11.4172 14.2057 11.5982 14.3593 11.7792 14.5129C11.8231 14.5513 11.867 14.5842 11.9108 14.6226C11.9437 14.65 11.9766 14.6774 12.0096 14.7048C12.0534 14.7432 12.1028 14.7816 12.1467 14.8145C12.2673 14.9133 12.3825 15.0065 12.5032 15.0943C12.547 15.1272 12.5909 15.1656 12.6403 15.1985C12.6458 15.2039 12.6513 15.2039 12.6567 15.2094C12.7006 15.2423 12.7445 15.2752 12.7884 15.3082C12.8597 15.363 12.931 15.4178 13.0023 15.4672C13.1065 15.544 13.2052 15.6208 13.3094 15.6921C13.4465 15.7908 13.5891 15.8895 13.7262 15.9882C13.7591 16.0102 13.7975 16.0376 13.8304 16.0595C13.9017 16.1089 13.973 16.1583 14.0443 16.2021Z" fill="black"/>
    <path d="M19.9292 9.73029C19.2382 10.7943 18.399 11.8967 17.4228 12.9772C16.8524 11.9406 16.1174 10.8546 15.2509 9.76868L15.2563 9.76319C15.3002 9.70835 15.3386 9.6535 15.3825 9.59866C15.3935 9.58769 15.3989 9.57123 15.4099 9.56026C15.4483 9.5109 15.4812 9.46154 15.5141 9.41766C15.5525 9.3683 15.5854 9.31894 15.6238 9.26958C15.6348 9.25861 15.6403 9.24216 15.6512 9.23119C15.6896 9.17634 15.728 9.12698 15.7609 9.07213C15.7664 9.06116 15.7774 9.05019 15.7829 9.04471C15.8542 8.9405 15.9255 8.84178 15.9968 8.73757C16.0461 8.66627 16.09 8.59497 16.1394 8.52916C16.2107 8.42495 16.2765 8.32623 16.3423 8.22202C16.3423 8.22202 16.3423 8.22202 16.3423 8.21654C16.3807 8.16169 16.4136 8.10136 16.452 8.04651C16.4904 7.99167 16.5233 7.93134 16.5562 7.87649C16.5891 7.82164 16.622 7.7668 16.6604 7.71195C16.6823 7.67356 16.7098 7.62968 16.7317 7.59129C16.7482 7.56387 16.7646 7.53644 16.7811 7.50902L16.7865 7.50354C16.814 7.45966 16.8359 7.41578 16.8633 7.37739C16.9346 7.25673 17.0004 7.13607 17.0717 7.0154C17.0937 6.97153 17.1211 6.92765 17.143 6.88377C17.1705 6.82893 17.2034 6.77408 17.2308 6.71924C17.2582 6.66987 17.2802 6.626 17.3021 6.57664C17.3131 6.56018 17.3186 6.53824 17.3295 6.52179C18.3222 7.5858 19.1998 8.66627 19.9292 9.73029Z" fill="black"/>
    <path d="M8.43348 16.2021C8.15376 16.3886 7.87405 16.5641 7.59982 16.7287C7.56142 16.7506 7.51755 16.778 7.47916 16.8C7.42979 16.8329 7.37495 16.8603 7.3201 16.8932C7.27622 16.9206 7.23235 16.9426 7.18847 16.97C7.12814 17.0029 7.06781 17.0358 7.00748 17.0687C6.95812 17.0961 6.90327 17.1236 6.85391 17.151C6.83197 17.162 6.80455 17.1784 6.78261 17.1894C6.7497 17.2058 6.72228 17.2223 6.68937 17.2387C6.53032 17.321 6.37675 17.3978 6.22318 17.4746C6.12994 17.5185 6.0367 17.5623 5.94347 17.6062C5.90507 17.6227 5.86668 17.6446 5.8228 17.6611C5.76247 17.6885 5.70214 17.7159 5.64181 17.7378C5.60342 17.7543 5.56503 17.7707 5.52663 17.7872C5.17562 17.9353 4.83557 18.0614 4.5065 18.1656C4.46262 18.1821 4.41874 18.1931 4.37487 18.204C4.34196 18.215 4.31454 18.2205 4.28163 18.2315C4.25969 18.2369 4.23775 18.2424 4.21581 18.2479C4.17742 18.2589 4.13903 18.2698 4.10064 18.2808C4.06773 18.2918 4.02934 18.2973 3.99643 18.3082C3.89771 18.3357 3.80447 18.3576 3.70574 18.3741C3.62896 18.0943 3.58508 17.7817 3.58508 17.4472C3.58508 17.4088 3.58508 17.3704 3.58508 17.3375C3.58508 17.332 3.58508 17.3265 3.58508 17.321C3.58508 17.2881 3.58508 17.2552 3.59057 17.2223C3.59057 17.1784 3.59605 17.14 3.59605 17.0961C3.59605 17.0797 3.59605 17.0687 3.60154 17.0523C3.60702 17.0194 3.60702 16.9865 3.61251 16.9481C3.61799 16.9206 3.61799 16.8877 3.62347 16.8603V16.8548C3.62347 16.8384 3.62896 16.8164 3.62896 16.8C3.63444 16.7671 3.63993 16.7287 3.64541 16.6958C3.6509 16.6738 3.6509 16.6519 3.65638 16.6299C3.65638 16.6135 3.66187 16.6025 3.66187 16.5861C3.66735 16.5641 3.66735 16.5422 3.67284 16.5257C3.67832 16.5038 3.68381 16.4764 3.68381 16.449C3.68929 16.4215 3.69477 16.3941 3.70026 16.3667V16.3612C3.70026 16.3502 3.70574 16.3393 3.70574 16.3283C3.70574 16.3283 3.70574 16.3283 3.70574 16.3228C3.71123 16.2954 3.71671 16.2734 3.7222 16.246C3.74414 16.1418 3.77156 16.0376 3.79898 15.9279C3.80995 15.895 3.81544 15.8566 3.82641 15.8237C3.83189 15.8073 3.83737 15.7908 3.83737 15.7744C3.84286 15.7524 3.84834 15.7305 3.85931 15.7031C3.8648 15.6756 3.87577 15.6482 3.88125 15.6208C3.88674 15.5988 3.89222 15.5769 3.90319 15.555C3.90867 15.5275 3.91964 15.5056 3.92513 15.4782C3.93061 15.4562 3.94158 15.4343 3.94707 15.4124C4.05127 15.0888 4.17194 14.7597 4.32002 14.4197C4.33099 14.3977 4.33647 14.3758 4.34744 14.3538C4.35841 14.3264 4.37487 14.2935 4.38583 14.2661C4.3968 14.2441 4.40229 14.2222 4.41326 14.2058C4.42971 14.1619 4.45165 14.118 4.47359 14.0741C4.49553 14.0248 4.51747 13.9809 4.5394 13.9315C4.64361 13.7121 4.7533 13.4928 4.86848 13.2679C4.89042 13.224 4.91236 13.1856 4.9343 13.1417C4.93978 13.1363 4.94527 13.1253 4.94527 13.1143C4.96172 13.0869 4.97269 13.0595 4.98914 13.032C5.0056 13.0046 5.01657 12.9827 5.03302 12.9553C5.395 13.3556 5.77344 13.7615 6.16833 14.1564C6.92521 14.9133 7.6766 15.5879 8.43348 16.2021Z" fill="black"/>
    <path d="M15.2509 9.76323C15.207 9.81808 15.1631 9.87292 15.1247 9.92777C15.0863 9.97713 15.0479 10.0265 15.0095 10.0759C14.9108 10.202 14.8066 10.3336 14.7024 10.4598C14.675 10.4927 14.6476 10.5311 14.6147 10.564C14.5543 10.6408 14.4885 10.7176 14.4227 10.7889C14.3898 10.8327 14.3514 10.8711 14.313 10.915C14.2801 10.9534 14.2472 10.9973 14.2088 11.0357C14.2033 11.0411 14.2033 11.0411 14.1978 11.0466C14.1594 11.0905 14.121 11.1399 14.0772 11.1837C14.0443 11.2167 14.0168 11.255 13.9839 11.288C13.94 11.3373 13.8962 11.3867 13.8523 11.436C13.8194 11.4744 13.781 11.5128 13.7481 11.5512C13.408 11.9297 13.0515 12.3026 12.6786 12.6756C12.6073 12.7469 12.5415 12.8127 12.4702 12.8785C12.4263 12.9224 12.3824 12.9662 12.3385 13.0046C12.2672 13.0704 12.2014 13.1363 12.1301 13.2021C12.0698 13.2569 12.0149 13.3118 11.9546 13.3666C11.823 13.4873 11.6968 13.6079 11.5652 13.7231C11.5213 13.7615 11.4775 13.7999 11.4336 13.8383C11.3623 13.8986 11.2965 13.9644 11.2252 14.0248C11.1539 13.9644 11.0881 13.9041 11.0168 13.8383C10.9729 13.7999 10.929 13.7615 10.8851 13.7231C10.7535 13.6079 10.6273 13.4873 10.4957 13.3666C10.4354 13.3118 10.3805 13.2569 10.3202 13.2021C10.2489 13.1363 10.1831 13.0704 10.1118 13.0046C10.0679 12.9608 10.024 12.9224 9.98016 12.8785C9.90886 12.8127 9.84304 12.7414 9.77174 12.6756C9.39879 12.3026 9.04229 11.9297 8.70225 11.5512C8.66385 11.5128 8.63095 11.4744 8.59804 11.436C8.55416 11.3867 8.51029 11.3373 8.46641 11.288C8.4335 11.255 8.40608 11.2167 8.37317 11.1837C8.33478 11.1399 8.2909 11.0905 8.25251 11.0466C8.24702 11.0411 8.24702 11.0411 8.24154 11.0357C8.20863 10.9973 8.17024 10.9534 8.13733 10.915C8.09894 10.8711 8.06603 10.8327 8.02764 10.7889C7.96182 10.7121 7.90149 10.6353 7.83568 10.564C7.80825 10.5311 7.78083 10.4927 7.74792 10.4598C7.64372 10.3281 7.53951 10.202 7.44079 10.0759C7.40239 10.0265 7.364 9.97713 7.32561 9.92777C7.28173 9.87292 7.23786 9.81808 7.19946 9.76323C7.23786 9.71387 7.28173 9.65902 7.32561 9.60966C7.35852 9.57127 7.39142 9.52739 7.42433 9.489C7.47918 9.42318 7.53402 9.35188 7.59435 9.28607C7.63275 9.24219 7.67114 9.19283 7.70953 9.14895C7.73147 9.12153 7.75341 9.09959 7.77535 9.07217C7.79729 9.04475 7.81922 9.02281 7.84116 8.99538C7.88504 8.94602 7.92892 8.89118 7.97279 8.84182C8.26896 8.50177 8.5761 8.16172 8.89969 7.82716C8.95454 7.77232 9.00938 7.71199 9.06423 7.65714C9.17392 7.54196 9.2891 7.43227 9.39879 7.31709C9.44815 7.26773 9.49751 7.21837 9.54688 7.17449C9.58527 7.1361 9.62366 7.09771 9.66205 7.05932C9.77174 6.95511 9.87595 6.8509 9.98564 6.74669C10.035 6.70282 10.0844 6.65346 10.1337 6.60958C10.2325 6.51634 10.3312 6.42859 10.4299 6.33535C10.5012 6.26953 10.5725 6.20372 10.6493 6.1379C10.6877 6.10499 10.7261 6.07209 10.7645 6.03918C10.8412 5.97336 10.918 5.90755 10.9948 5.84173C11.0716 5.77592 11.1484 5.7101 11.2252 5.64429C11.834 6.15984 12.4428 6.71927 13.0406 7.31709C13.8578 8.11785 14.5927 8.94054 15.2509 9.76323Z" fill="black"/>
    <path d="M18.5087 2.68808C18.5087 2.71551 18.5087 2.74293 18.5032 2.77584C18.5032 2.78681 18.5032 2.79777 18.5032 2.80874C18.5032 2.83617 18.4978 2.86908 18.4978 2.8965C18.4978 2.90747 18.4978 2.91844 18.4978 2.9294C18.4978 2.95683 18.4923 2.97877 18.4923 3.00619C18.4923 3.02264 18.4923 3.03361 18.4868 3.05007C18.4868 3.07749 18.4813 3.09943 18.4758 3.12685C18.4758 3.14879 18.4703 3.16524 18.4703 3.18718C18.4484 3.36269 18.4155 3.54368 18.3771 3.73016C18.3716 3.7521 18.3661 3.77404 18.3606 3.79597C18.3552 3.8234 18.3497 3.84534 18.3442 3.87276C18.3387 3.91115 18.3277 3.94406 18.3168 3.98245C18.3113 4.00987 18.3058 4.0373 18.2948 4.06472C18.2893 4.08666 18.2839 4.11408 18.2784 4.13602C18.2564 4.21829 18.2345 4.30056 18.2071 4.38283C18.1961 4.41573 18.1851 4.44864 18.1742 4.48704C18.1632 4.51994 18.1577 4.55285 18.1467 4.58027C18.1413 4.6077 18.1303 4.63512 18.1193 4.66254C18.1138 4.68996 18.1029 4.7119 18.0919 4.73933C18.0864 4.75578 18.0809 4.77223 18.0754 4.7832C18.0645 4.81063 18.059 4.83805 18.048 4.86547C18.0425 4.88741 18.0316 4.90935 18.0261 4.93129C18.0151 4.95871 18.0041 4.99162 17.9932 5.01904C17.9767 5.06292 17.9603 5.10679 17.9438 5.15067C17.8944 5.2823 17.8396 5.41942 17.7793 5.55653C17.7683 5.58396 17.7573 5.61138 17.7464 5.6388C17.7299 5.6772 17.7135 5.71559 17.697 5.7485C17.6805 5.7814 17.6641 5.8198 17.6476 5.8527C17.6312 5.88561 17.6147 5.924 17.5983 5.95691C17.5709 6.01724 17.5434 6.07757 17.5105 6.1379C17.4941 6.17081 17.4776 6.20372 17.4666 6.23663C17.4228 6.32986 17.3734 6.4231 17.3295 6.51634C17.1101 6.28599 16.8853 6.05015 16.6549 5.81979C15.8103 4.97516 14.9437 4.20732 14.0826 3.52723C14.132 3.49432 14.1814 3.4669 14.2307 3.43399C14.2636 3.41205 14.2965 3.3956 14.3294 3.37366C14.3953 3.33527 14.4556 3.29687 14.5214 3.25848C14.5433 3.24203 14.5708 3.23106 14.5927 3.2146C14.664 3.17073 14.7353 3.12685 14.8066 3.08846C14.856 3.06104 14.8998 3.03361 14.9492 3.00619C14.9986 2.97877 15.0424 2.95134 15.0918 2.92392C15.1192 2.90747 15.1521 2.89101 15.1796 2.87456C15.3057 2.80874 15.4264 2.74293 15.5525 2.67711C15.5964 2.65518 15.6458 2.62775 15.6896 2.60581C15.7719 2.56194 15.8542 2.52354 15.9419 2.48515C15.9748 2.4687 16.0023 2.45773 16.0352 2.44127C16.1503 2.38643 16.26 2.33707 16.3752 2.28771C16.4191 2.26577 16.463 2.24931 16.5068 2.22738C16.5507 2.21092 16.5946 2.18898 16.6385 2.17253C16.6823 2.15608 16.7262 2.13414 16.7701 2.11768C16.814 2.10123 16.8579 2.08478 16.9017 2.06832C17.0334 2.01896 17.1595 1.9696 17.2911 1.92572C17.335 1.90927 17.3734 1.8983 17.4173 1.88185C17.4886 1.85991 17.5544 1.83797 17.6257 1.81603C17.6367 1.81054 17.6476 1.81054 17.6586 1.80506C17.6751 1.79957 17.697 1.79409 17.7135 1.78861C17.8122 1.76118 17.9054 1.73376 17.9987 1.70634C18.0206 1.70085 18.048 1.69537 18.07 1.68988C18.0974 1.6844 18.1303 1.67343 18.1577 1.66794C18.1961 1.65698 18.2345 1.65149 18.2729 1.64052C18.3113 1.62955 18.3497 1.62407 18.3881 1.6131C18.4813 1.93669 18.5197 2.29867 18.5087 2.68808Z" fill="black"/>
    <path d="M8.39519 3.53273C7.53411 4.21282 6.66754 4.98067 5.82291 5.8253C5.59256 6.05565 5.36769 6.286 5.1483 6.52184C5.09894 6.4286 5.05507 6.33537 5.01119 6.24213C4.99474 6.20922 4.97828 6.17631 4.96731 6.1434C4.93989 6.08307 4.91247 6.02274 4.87956 5.96241C4.8631 5.9295 4.84665 5.89111 4.8302 5.8582C4.81374 5.8253 4.79729 5.7869 4.78084 5.754C4.76438 5.7156 4.74793 5.67721 4.73147 5.6443C4.7205 5.61688 4.70954 5.58946 4.69857 5.56203C4.63824 5.42492 4.58887 5.29329 4.53403 5.15617C4.51757 5.1123 4.50112 5.06842 4.48467 5.02454C4.4737 4.99712 4.46273 4.96421 4.45176 4.93679C4.44079 4.91485 4.4353 4.89291 4.42982 4.87097C4.41885 4.84355 4.40788 4.81613 4.4024 4.78871C4.39691 4.77225 4.39143 4.7558 4.38594 4.74483C4.37497 4.7174 4.36949 4.69547 4.35852 4.66804C4.34755 4.64062 4.34207 4.6132 4.3311 4.58577C4.32013 4.55287 4.30916 4.51996 4.30367 4.49253C4.2927 4.45963 4.28174 4.42124 4.27077 4.38833C4.24334 4.30606 4.2214 4.22379 4.19947 4.14152C4.19398 4.11958 4.1885 4.09216 4.18301 4.07022C4.17753 4.0428 4.16656 4.01537 4.16107 3.98795C4.15011 3.94956 4.14462 3.91665 4.13365 3.87826C4.12817 3.85084 4.12268 3.8289 4.1172 3.80148C4.11171 3.77954 4.10623 3.7576 4.10074 3.73566C4.06235 3.54918 4.02944 3.36819 4.0075 3.19268C4.00202 3.17074 4.00202 3.15429 4.00202 3.13235C3.99654 3.10493 3.99654 3.08299 3.99105 3.05557C3.99105 3.03911 3.98557 3.02814 3.98557 3.01169C3.98008 2.98427 3.98008 2.96233 3.98008 2.93491C3.98008 2.92394 3.98008 2.91297 3.98008 2.902C3.98008 2.87457 3.9746 2.84167 3.9746 2.81425C3.9746 2.80328 3.9746 2.79231 3.9746 2.78134C3.9746 2.75391 3.96911 2.72101 3.96911 2.69358C3.95814 2.30418 3.99654 1.94219 4.08429 1.62408C5.34575 1.88735 6.83208 2.5455 8.39519 3.53273Z" fill="black"/>
    <path d="M18.7611 18.3741C18.6678 18.3521 18.5691 18.3302 18.4704 18.3083C18.4375 18.3028 18.4046 18.2918 18.3662 18.2808C18.3278 18.2699 18.2894 18.2589 18.251 18.2479C18.229 18.2424 18.2071 18.237 18.1852 18.2315C18.1523 18.2205 18.1248 18.215 18.0919 18.2041C18.0481 18.1931 18.0042 18.1766 17.9603 18.1657C17.6312 18.0615 17.2912 17.9353 16.9402 17.7872C16.9018 17.7708 16.8634 17.7543 16.825 17.7379C16.7647 17.7104 16.7043 17.6885 16.644 17.6611C16.6056 17.6446 16.5672 17.6227 16.5233 17.6062C16.4301 17.5624 16.3369 17.5185 16.2436 17.4746C16.0901 17.3978 15.9365 17.321 15.7774 17.2388C15.7445 17.2223 15.7171 17.2059 15.6842 17.1894C15.6623 17.1784 15.6348 17.162 15.6129 17.151C15.5635 17.1236 15.5087 17.0962 15.4593 17.0687C15.399 17.0358 15.3387 17.0029 15.2783 16.97C15.2345 16.9426 15.1906 16.9207 15.1467 16.8932C15.0973 16.8658 15.0425 16.8329 14.9876 16.8C14.9493 16.7781 14.9054 16.7506 14.867 16.7287C14.5928 16.5642 14.313 16.3887 14.0333 16.2022C14.7847 15.5879 15.5416 14.9078 16.2765 14.1729C16.6714 13.778 17.0499 13.3776 17.4118 12.9717C18.6185 15.1327 19.1285 17.0742 18.7611 18.3741Z" fill="black"/>
    <path d="M5.04953 12.9717C3.85388 15.1326 3.3493 17.0797 3.71677 18.3795C2.39497 18.6592 1.31451 18.5057 0.661837 17.853C-0.720284 16.4709 0.135314 13.224 2.54854 9.73029C3.23412 10.7943 4.07875 11.8912 5.04953 12.9717Z" fill="#FF434E"/>
    <path d="M18.3936 1.61853C17.1322 1.88727 15.6458 2.54542 14.0827 3.53265C13.1174 2.77029 12.1576 2.11763 11.2362 1.5911C14.1266 -0.0652494 16.666 -0.520472 17.8452 0.664204C18.1029 0.921981 18.2839 1.24557 18.3936 1.61853Z" fill="#FF434E"/>
    <path d="M11.2362 1.59108C10.3147 2.1176 9.35493 2.77027 8.38964 3.53263C6.82652 2.5454 5.3402 1.88725 4.07874 1.6185C4.18294 1.24007 4.36393 0.921959 4.62171 0.664182C5.80639 -0.515009 8.34576 -0.0652715 11.2362 1.59108Z" fill="#FF434E"/>
    <path d="M16.655 5.82522C16.8854 6.05558 17.1102 6.28593 17.3296 6.52177C17.3186 6.53822 17.3132 6.56016 17.3022 6.57661C17.2803 6.62049 17.2528 6.66985 17.2309 6.71921C17.2035 6.77406 17.1706 6.8289 17.1431 6.88375C17.1212 6.92763 17.0938 6.9715 17.0718 7.01538C17.0334 7.0812 17.0005 7.14701 16.9621 7.21283C16.9292 7.26767 16.9018 7.32252 16.8689 7.37737C16.847 7.42124 16.8195 7.46512 16.7921 7.50351L16.7866 7.509C16.7702 7.53642 16.7537 7.56384 16.7373 7.59127C16.7153 7.62966 16.6879 7.67354 16.666 7.71193C16.6331 7.76677 16.6002 7.82162 16.5618 7.87647C16.5289 7.93131 16.4905 7.99164 16.4576 8.04649C16.4247 8.10133 16.3863 8.16167 16.3479 8.21651C16.3479 8.21651 16.3479 8.21651 16.3479 8.222C16.2821 8.3262 16.2162 8.42493 16.1449 8.52913C16.0956 8.60043 16.0517 8.67173 16.0023 8.73755C15.931 8.83627 15.8597 8.94048 15.7884 9.04469C15.783 9.05566 15.772 9.06663 15.7665 9.07211C15.7281 9.12147 15.6897 9.17632 15.6568 9.23116C15.6458 9.24213 15.6404 9.25859 15.6294 9.26956C15.591 9.31892 15.5581 9.36828 15.5197 9.41764C15.4868 9.467 15.4484 9.51636 15.4155 9.56024C15.4045 9.57121 15.399 9.58766 15.3881 9.59863C15.3497 9.65348 15.3058 9.70833 15.2619 9.76317L15.2564 9.76866C14.5983 8.94596 13.8633 8.12327 13.0571 7.31155C12.4593 6.71373 11.8505 6.1543 11.2417 5.63875C12.196 4.82702 13.1558 4.12499 14.0882 3.53265C14.9438 4.21275 15.8104 4.98059 16.655 5.82522Z" fill="#FF434E"/>
    <path d="M21.816 17.853C21.1579 18.5111 20.0829 18.6592 18.7611 18.3795C19.1286 17.0797 18.624 15.1381 17.4283 12.9717C18.3991 11.8857 19.2438 10.7888 19.9348 9.72479C22.3426 13.224 23.1982 16.4654 21.816 17.853Z" fill="#FF434E"/>
    <path d="M11.2361 5.63875C10.6273 6.1543 10.0185 6.71373 9.4207 7.31155C8.61447 8.11779 7.87953 8.94048 7.22138 9.76866L7.21589 9.76317C7.17201 9.70833 7.13362 9.65348 7.08974 9.59863C7.07878 9.58766 7.07329 9.57121 7.06232 9.56024C7.02393 9.51088 6.99102 9.46152 6.95811 9.41764C6.91972 9.36828 6.88681 9.31892 6.84842 9.26956C6.83745 9.25859 6.83197 9.24213 6.821 9.23116C6.78261 9.17632 6.74421 9.12696 6.71131 9.07211C6.70582 9.06114 6.69485 9.05017 6.68937 9.04469C6.61807 8.94048 6.54677 8.84176 6.47547 8.73755C6.42611 8.66625 6.38223 8.59495 6.33287 8.52913C6.26157 8.42493 6.19575 8.3262 6.12994 8.222C6.12994 8.222 6.12994 8.222 6.12994 8.21651C6.09155 8.16167 6.05864 8.10133 6.02025 8.04649C5.98185 7.99164 5.94895 7.93131 5.91604 7.87647C5.88313 7.82162 5.85022 7.76677 5.81183 7.71193C5.78989 7.67354 5.76247 7.62966 5.74053 7.59127C5.72408 7.56384 5.70762 7.53642 5.69117 7.509L5.68568 7.50351C5.65826 7.45964 5.63632 7.41576 5.6089 7.37737C5.57599 7.32252 5.54308 7.26767 5.51566 7.21283C5.47727 7.14701 5.43888 7.0812 5.40597 7.01538C5.38403 6.9715 5.35661 6.92763 5.33467 6.88375C5.30725 6.8289 5.27434 6.77406 5.24692 6.71921C5.21949 6.66985 5.19755 6.62597 5.17562 6.57661C5.16465 6.56016 5.15916 6.53822 5.14819 6.52177C5.36758 6.29141 5.59245 6.05558 5.8228 5.82522C6.66743 4.98059 7.534 4.21275 8.39508 3.53265C9.32198 4.12499 10.2818 4.82702 11.2361 5.63875Z" fill="#FF434E"/>
    <path d="M11.2362 18.1931C8.19224 20.0249 5.49381 20.5679 4.25977 19.3393C4.002 19.0816 3.821 18.758 3.7168 18.385C3.75519 18.3795 3.79358 18.3686 3.83197 18.3576C3.87037 18.3521 3.90327 18.3411 3.94167 18.3302C3.9636 18.3247 3.98554 18.3192 4.002 18.3137C4.0349 18.3082 4.06781 18.2973 4.1062 18.2863C4.1446 18.2753 4.18299 18.2644 4.22138 18.2534C4.24332 18.2479 4.26526 18.2424 4.2872 18.2369C4.3201 18.226 4.34753 18.2205 4.38044 18.2095C4.41883 18.1985 4.45722 18.1876 4.49561 18.1711C4.83017 18.0669 5.1757 17.9408 5.52672 17.7872C5.56511 17.7707 5.6035 17.7543 5.6419 17.7378C5.70223 17.7104 5.76256 17.6885 5.82289 17.661C5.86128 17.6446 5.89967 17.6227 5.94355 17.6062C6.03679 17.5623 6.13002 17.5184 6.22326 17.4746C6.37683 17.3978 6.5304 17.321 6.68945 17.2387C6.73333 17.2168 6.78269 17.1894 6.82657 17.1619C6.84302 17.151 6.85948 17.1455 6.87593 17.1345C6.91981 17.1126 6.96369 17.0852 7.00756 17.0632C7.12274 17.0029 7.23243 16.9371 7.34761 16.8713C7.386 16.8493 7.42439 16.8274 7.46278 16.8054C7.63829 16.7012 7.81929 16.5915 8.00028 16.4764C8.03867 16.4544 8.07706 16.427 8.11545 16.3996C8.21966 16.3338 8.32387 16.268 8.42808 16.1967C9.37691 16.9755 10.3203 17.6446 11.2362 18.1931Z" fill="#0088E0"/>
    <path d="M19.9293 9.72479C19.1998 8.66626 18.3223 7.5803 17.3296 6.52177C17.379 6.42854 17.4228 6.3353 17.4667 6.24206C17.4832 6.20915 17.4996 6.17624 17.5106 6.14334C17.538 6.08301 17.5654 6.02268 17.5983 5.96234C17.6148 5.92944 17.6312 5.89105 17.6477 5.85814C17.6642 5.82523 17.6806 5.78684 17.6971 5.75393C17.7135 5.71554 17.73 5.67714 17.7464 5.64424C17.7574 5.61681 17.7684 5.58939 17.7793 5.56197C17.8397 5.42485 17.889 5.29322 17.9439 5.15611C17.9603 5.11223 17.9768 5.06835 17.9932 5.02448C18.0042 4.99705 18.0152 4.96415 18.0261 4.93672C18.0371 4.91478 18.0426 4.89285 18.0481 4.87091C18.059 4.84348 18.07 4.81606 18.0755 4.78864C18.081 4.77218 18.0865 4.75573 18.092 4.74476C18.1029 4.71734 18.1084 4.6954 18.1194 4.66798C18.1303 4.64055 18.1358 4.61313 18.1468 4.58571C18.1578 4.5528 18.1687 4.51989 18.1742 4.49247C18.1852 4.45956 18.1962 4.42117 18.2071 4.38826C18.2346 4.30599 18.2565 4.22372 18.2784 4.14145C18.2839 4.11952 18.2894 4.09209 18.2949 4.07015C18.3004 4.04273 18.3113 4.01531 18.3168 3.98789C18.3278 3.94949 18.3333 3.91659 18.3442 3.87819C18.3497 3.85077 18.3552 3.82883 18.3607 3.80141C18.3662 3.77947 18.3717 3.75753 18.3772 3.73559C18.4155 3.54912 18.4484 3.36812 18.4704 3.19262C18.4759 3.17068 18.4759 3.15422 18.4759 3.13229C18.4814 3.10486 18.4814 3.08292 18.4868 3.0555C18.4868 3.03905 18.4923 3.02808 18.4923 3.01162C18.4978 2.9842 18.4978 2.96226 18.4978 2.93484C18.4978 2.92387 18.4978 2.9129 18.4978 2.90193C18.4978 2.87451 18.5033 2.8416 18.5033 2.81418C18.5033 2.80321 18.5033 2.79224 18.5033 2.78127C18.5033 2.75385 18.5088 2.72094 18.5088 2.69352C18.5198 2.30411 18.4814 1.94213 18.3936 1.62402C19.7154 1.3443 20.7959 1.49787 21.4485 2.15054C22.7594 3.46136 22.0573 6.43951 19.9293 9.72479Z" fill="#0088E0"/>
    <path d="M5.14822 6.52179C4.15002 7.58581 3.27796 8.66628 2.54851 9.72481C0.420483 6.43953 -0.281546 3.46138 1.02928 2.14507C1.68743 1.48692 2.76241 1.33884 4.0842 1.61855C3.99096 1.93666 3.95806 2.29864 3.96903 2.68805C3.96903 2.71547 3.96903 2.7429 3.97451 2.7758C3.97451 2.78677 3.97451 2.79774 3.97451 2.80871C3.97451 2.83614 3.97999 2.86904 3.97999 2.89647C3.97999 2.90744 3.97999 2.9184 3.97999 2.92937C3.97999 2.9568 3.98548 2.97874 3.98548 3.00616C3.98548 3.02261 3.98548 3.03358 3.99096 3.05004C3.99096 3.07746 3.99645 3.0994 4.00193 3.12682C4.00193 3.14876 4.00742 3.16521 4.00742 3.18715C4.02936 3.36266 4.06226 3.54365 4.10066 3.73013C4.10614 3.75207 4.11163 3.774 4.11711 3.79594C4.12259 3.82337 4.12808 3.8453 4.13356 3.87273C4.13905 3.91112 4.15002 3.94403 4.16099 3.98242C4.16647 4.00984 4.17196 4.03727 4.18293 4.06469C4.18841 4.08663 4.19389 4.11405 4.19938 4.13599C4.22132 4.21826 4.24326 4.30053 4.27068 4.38279C4.28165 4.4157 4.29262 4.44861 4.30359 4.487C4.31456 4.51991 4.32004 4.55282 4.33101 4.58024C4.33649 4.60766 4.34746 4.63509 4.35843 4.66251C4.36392 4.68993 4.37489 4.71187 4.38586 4.73929C4.39134 4.75575 4.39683 4.7722 4.40231 4.78317C4.41328 4.8106 4.41876 4.83802 4.42973 4.86544C4.43522 4.88738 4.44619 4.90932 4.45167 4.93126C4.46264 4.95868 4.47361 4.99159 4.48458 5.01901C4.50103 5.06289 4.51749 5.10676 4.53394 5.15064C4.5833 5.28227 4.63815 5.41939 4.69848 5.5565C4.70945 5.58393 4.72042 5.61135 4.73139 5.63877C4.74784 5.67716 4.76429 5.71556 4.78075 5.74846C4.7972 5.78137 4.81366 5.81976 4.83011 5.85267C4.84656 5.88558 4.86302 5.92397 4.87947 5.95688C4.90689 6.01721 4.93432 6.07754 4.96722 6.13787C4.98368 6.17078 5.00013 6.20369 5.0111 6.23659C5.05498 6.33532 5.09886 6.42855 5.14822 6.52179Z" fill="#0088E0"/>
    <path d="M11.2362 14.0467C11.1704 14.1015 11.1046 14.1618 11.0443 14.2167C10.9894 14.2661 10.9346 14.3099 10.8797 14.3593C10.8249 14.4087 10.77 14.4525 10.7152 14.5019C10.6548 14.5513 10.6 14.6006 10.5397 14.65C10.4793 14.6993 10.4245 14.7487 10.3642 14.7926C10.2325 14.8968 10.1064 15.001 9.98024 15.0997C9.93636 15.1326 9.89249 15.171 9.84313 15.2039C9.83764 15.2094 9.83216 15.2094 9.82667 15.2149C9.7828 15.2478 9.73892 15.2807 9.69504 15.3136C9.61277 15.3739 9.5305 15.4398 9.44823 15.5001C9.355 15.5659 9.26724 15.6317 9.174 15.6975C9.03689 15.7963 8.89429 15.895 8.75717 15.9937C8.72427 16.0156 8.68587 16.0431 8.65297 16.065C8.58167 16.1144 8.51037 16.1582 8.43907 16.2076C7.68768 15.5933 6.9308 14.9132 6.19586 14.1783C5.80097 13.7834 5.42253 13.383 5.06055 12.9772C5.63095 11.9406 6.36588 10.8546 7.23245 9.76868C7.27633 9.82352 7.32021 9.87837 7.3586 9.93322C7.39699 9.98258 7.43538 10.0319 7.47378 10.0813C7.5725 10.2074 7.67671 10.3391 7.78091 10.4652C7.80834 10.4981 7.83576 10.5365 7.86867 10.5694C7.95642 10.6736 8.03869 10.7778 8.12644 10.8821C8.17581 10.9369 8.21968 10.9917 8.26904 11.0466L8.27453 11.0521C8.32389 11.1124 8.37874 11.1673 8.4281 11.2276C8.4281 11.2331 8.43358 11.2331 8.43358 11.2386C8.48294 11.2989 8.53779 11.3592 8.59264 11.4141C8.642 11.4689 8.68587 11.5183 8.73524 11.5731C9.07528 11.9461 9.4263 12.319 9.79376 12.6865C9.86506 12.7578 9.93088 12.8236 10.0022 12.8894C10.0461 12.9333 10.0899 12.9772 10.1338 13.0156C10.2051 13.0814 10.2709 13.1472 10.3422 13.213C10.4026 13.2679 10.4574 13.3227 10.5177 13.3775C10.589 13.4434 10.6603 13.5147 10.7371 13.5805C10.7865 13.6244 10.8358 13.6682 10.8797 13.7121C10.94 13.767 11.0004 13.8218 11.0607 13.8767C11.1156 13.937 11.1759 13.9918 11.2362 14.0467Z" fill="#0088E0"/>
    <path d="M18.7556 18.3795C18.6514 18.7579 18.4704 19.076 18.2126 19.3338C16.9841 20.5624 14.2802 20.0194 11.2362 18.1875C12.1521 17.6391 13.0955 16.9699 14.0443 16.2021C14.1485 16.2734 14.2527 16.3392 14.3569 16.405C14.3953 16.4324 14.4337 16.4544 14.4721 16.4818C14.6531 16.597 14.8341 16.7067 15.0096 16.8109C15.048 16.8328 15.0864 16.8548 15.1248 16.8767C15.24 16.9425 15.3497 17.0083 15.4648 17.0687C15.5087 17.0906 15.5526 17.118 15.5965 17.14C15.6129 17.1509 15.6294 17.1564 15.6458 17.1674C15.6897 17.1948 15.7391 17.2167 15.7829 17.2442C15.942 17.3264 16.0956 17.4032 16.2491 17.48C16.3424 17.5239 16.4356 17.5678 16.5289 17.6116C16.5672 17.6281 16.6056 17.65 16.6495 17.6665C16.7098 17.6939 16.7702 17.7213 16.8305 17.7433C16.8689 17.7597 16.9073 17.7762 16.9457 17.7926C17.3022 17.9407 17.6477 18.0723 17.9768 18.1765C18.0152 18.1875 18.0536 18.1985 18.092 18.2149C18.1249 18.2259 18.1578 18.2314 18.1852 18.2424C18.2071 18.2478 18.2291 18.2533 18.251 18.2588C18.2894 18.2698 18.3278 18.2808 18.3662 18.2917C18.3991 18.3027 18.4375 18.3082 18.4704 18.3191C18.4923 18.3246 18.5143 18.3301 18.5307 18.3356C18.5691 18.3466 18.602 18.3521 18.6404 18.363C18.6788 18.363 18.7172 18.374 18.7556 18.3795Z" fill="#0088E0"/>
    <path d="M17.4229 12.9717C17.0609 13.3721 16.6824 13.7779 16.2875 14.1728C15.5471 14.9132 14.7957 15.5879 14.0443 16.2021C13.973 16.1528 13.9017 16.1089 13.8304 16.0595C13.7975 16.0376 13.7591 16.0102 13.7262 15.9882C13.5891 15.895 13.4465 15.7963 13.3094 15.6921C13.2162 15.6262 13.1284 15.5604 13.0352 15.4946C12.9529 15.4343 12.8706 15.374 12.7884 15.3081C12.7445 15.2752 12.7006 15.2423 12.6567 15.2094C12.6513 15.2039 12.6458 15.2039 12.6403 15.1984C12.5964 15.1655 12.5525 15.1271 12.5032 15.0942C12.377 14.9955 12.2454 14.8913 12.1192 14.7871C12.0589 14.7377 12.0041 14.6939 11.9437 14.6445C11.8834 14.5951 11.8286 14.5458 11.7682 14.4964C11.7134 14.4525 11.6585 14.4032 11.6037 14.3538C11.5488 14.3045 11.494 14.2606 11.4392 14.2112C11.3733 14.1564 11.3075 14.1015 11.2472 14.0412C11.3075 13.9864 11.3679 13.9315 11.4282 13.8821C11.4885 13.8328 11.5488 13.7725 11.6092 13.7176C11.6585 13.6737 11.7079 13.6299 11.7518 13.586C11.8231 13.5202 11.8999 13.4543 11.9712 13.383C12.0315 13.3282 12.0863 13.2734 12.1467 13.2185C12.218 13.1527 12.2838 13.0869 12.3551 13.0211C12.399 12.9772 12.4428 12.9333 12.4867 12.8949C12.558 12.8291 12.6238 12.7578 12.6951 12.692C13.0626 12.3245 13.4136 11.9516 13.7537 11.5786C13.803 11.5238 13.8469 11.4744 13.8963 11.4196C13.9511 11.3592 14.0005 11.2989 14.0553 11.244C14.0608 11.2386 14.0608 11.2386 14.0608 11.2331C14.1102 11.1727 14.165 11.1179 14.2144 11.0576L14.2199 11.0521C14.2692 10.9972 14.3131 10.9424 14.3625 10.8875C14.4502 10.7833 14.538 10.6791 14.6202 10.5749C14.6477 10.542 14.6751 10.5036 14.708 10.4707C14.8122 10.3391 14.9164 10.2129 15.0151 10.0868C15.0535 10.0374 15.0919 9.98807 15.1303 9.93871C15.1742 9.88386 15.2181 9.82902 15.2564 9.77417C16.123 10.8546 16.8525 11.9406 17.4229 12.9717Z" fill="#0088E0"/>
    <path d="M27.7331 8.7753H26.2029V3.11518L27.6947 3V4.62345C27.8812 4.51375 28.0842 4.43148 28.3145 4.38212C28.5449 4.33276 28.7862 4.31082 29.0494 4.31082C29.4608 4.31082 29.7789 4.39309 29.9983 4.55763C30.2231 4.72217 30.3328 4.95252 30.3328 5.24869V8.7753H28.8026V5.57228H28.3529C28.1171 5.57228 27.9525 5.59971 27.8648 5.66004C27.777 5.72037 27.7277 5.82457 27.7277 5.97266V8.7753H27.7331ZM32.7461 8.38589L32.7186 8.51752C32.6748 8.704 32.6254 8.84659 32.576 8.9508C32.5267 9.05501 32.4554 9.1318 32.3621 9.17567C32.2689 9.21955 32.1373 9.25794 31.9618 9.27988L31.0239 9.39506L30.9526 10.2013C31.0897 10.2397 31.2488 10.2726 31.4188 10.2945C31.5943 10.3165 31.7588 10.3274 31.9234 10.3274C32.3621 10.3274 32.7241 10.2671 33.0038 10.1464C33.2836 10.0258 33.5139 9.82286 33.7004 9.53766C33.8814 9.25246 34.0295 8.86853 34.1501 8.3804L35.1758 4.43149H33.6839L33.0477 7.04764H32.96L32.3402 4.43697H30.8484L31.863 8.38589H32.7461ZM39.898 7.66192C39.8322 7.9526 39.728 8.19393 39.5799 8.3804C39.4373 8.56688 39.2508 8.69851 39.0205 8.78626C38.7901 8.86853 38.5159 8.91241 38.1978 8.91241C37.8687 8.91241 37.5835 8.86853 37.3477 8.78626C37.3148 8.77529 37.2818 8.75884 37.2544 8.74787V10.119L35.7242 10.2397V4.43697H36.4811L36.7718 4.84831C36.7718 4.84283 36.7773 4.84283 36.7773 4.83734C36.9199 4.65635 37.1118 4.51924 37.3477 4.43697C37.5835 4.3547 37.8687 4.31082 38.1978 4.31082C38.5214 4.31082 38.7956 4.3547 39.0205 4.43697C39.2453 4.51924 39.4318 4.65635 39.5744 4.83734C39.717 5.01834 39.8267 5.25966 39.8925 5.55034C39.9583 5.84103 39.9912 6.19204 39.9912 6.60339C39.9967 7.02022 39.9638 7.37123 39.898 7.66192ZM38.3568 5.47904H37.6C37.4683 5.47904 37.3751 5.4955 37.3257 5.52841C37.2764 5.56131 37.2544 5.62165 37.2544 5.70392V7.74419H38.0003C38.1374 7.74419 38.2307 7.72774 38.28 7.69483C38.3294 7.66192 38.3513 7.60159 38.3513 7.50835V5.47904H38.3568ZM40.7646 7.65095C40.6823 7.36027 40.6384 7.01474 40.6384 6.60888C40.6384 6.0659 40.7152 5.62713 40.8688 5.28708C41.0223 4.95252 41.2582 4.70571 41.5818 4.54666C41.9054 4.38761 42.3167 4.31082 42.8268 4.31082C43.3369 4.31082 43.7317 4.3547 44.0169 4.44246C44.3021 4.53021 44.4996 4.67829 44.6203 4.88671C44.7409 5.09512 44.7958 5.38032 44.7958 5.74779C44.7958 6.02202 44.7519 6.24689 44.6696 6.42788C44.5873 6.60887 44.4502 6.75696 44.2583 6.86665C44.0663 6.97634 43.8085 7.05313 43.4849 7.10249C43.1613 7.14637 42.761 7.17379 42.2783 7.17379V7.72225C42.3606 7.73871 42.4538 7.75516 42.558 7.76064C42.6677 7.77161 42.7994 7.77161 42.9639 7.77161C43.2052 7.77161 43.452 7.75516 43.7043 7.71676C43.9511 7.67837 44.2144 7.62353 44.4941 7.54674L44.6861 8.61624C44.4009 8.70948 44.0992 8.78078 43.7811 8.83014C43.463 8.8795 43.1339 8.90144 42.7939 8.90144C42.4154 8.90144 42.0918 8.85756 41.8231 8.76981C41.5489 8.68206 41.3295 8.54494 41.154 8.36395C40.9785 8.17747 40.8468 7.93615 40.7646 7.65095ZM42.2783 5.81909V6.37304H42.7884C43.0242 6.37304 43.1888 6.34561 43.2765 6.29077C43.3643 6.23592 43.4136 6.13171 43.4136 5.98363V5.44614H42.9036C42.6677 5.44614 42.5032 5.47356 42.4154 5.52292C42.3277 5.57228 42.2783 5.67101 42.2783 5.81909ZM47.2583 6.19204C47.3296 6.14268 47.4229 6.08784 47.5435 6.03299C47.6642 5.97815 47.7958 5.92878 47.933 5.87942C48.0701 5.83554 48.1852 5.80264 48.2785 5.79167L48.1743 4.30534C47.9439 4.36567 47.7245 4.45342 47.5161 4.5686C47.3077 4.68926 47.1103 4.84283 46.9183 5.03479L46.485 4.43697H45.7281V8.78078H47.2583V6.19204ZM28.7588 14.8852C28.5778 14.9235 28.3913 14.94 28.1938 14.94C27.947 14.94 27.7606 14.9235 27.6454 14.8852V13.2727C27.6454 13.0314 27.6893 12.8613 27.7825 12.7626C27.8757 12.6639 28.0348 12.6145 28.2706 12.6145C28.4461 12.6145 28.6052 12.6255 28.7588 12.6419C28.9123 12.6584 29.0659 12.6913 29.214 12.7352L29.3511 11.6602C29.2524 11.6273 29.1207 11.5944 28.9507 11.5724C28.7807 11.5505 28.6052 11.5286 28.4187 11.5121C28.2322 11.4957 28.0512 11.4847 27.8867 11.4847C27.5521 11.4847 27.2669 11.5286 27.0256 11.6108C26.7898 11.6931 26.5923 11.8302 26.4443 12.0112C26.2962 12.1922 26.181 12.4335 26.1097 12.7242C26.0384 13.0149 26 13.3659 26 13.7773C26 14.1886 26.0384 14.5396 26.1097 14.8303C26.181 15.121 26.2907 15.3568 26.4443 15.5433C26.5923 15.7298 26.7898 15.8614 27.0256 15.9492C27.2615 16.0314 27.5521 16.0753 27.8867 16.0753C28.1664 16.0753 28.4352 16.0479 28.6984 16.004C28.9617 15.9547 29.2085 15.8833 29.4389 15.7901L29.3017 14.7206C29.1207 14.7919 28.9398 14.8468 28.7588 14.8852ZM34.194 12.7242C34.2763 13.0149 34.3147 13.3659 34.3147 13.7773C34.3147 14.1831 34.2763 14.5341 34.194 14.8248C34.1117 15.1155 33.9856 15.3568 33.8101 15.5378C33.6346 15.7188 33.4042 15.8559 33.13 15.9437C32.8503 16.0314 32.5157 16.0753 32.1208 16.0753C31.7259 16.0753 31.3914 16.0314 31.1117 15.9437C30.8319 15.8559 30.6071 15.7243 30.4316 15.5378C30.2561 15.3568 30.1244 15.1155 30.0422 14.8248C29.9599 14.5341 29.916 14.1831 29.916 13.7773C29.916 13.3659 29.9599 13.0149 30.0422 12.7242C30.1244 12.4335 30.2561 12.1922 30.4316 12.0112C30.6071 11.8302 30.8374 11.6931 31.1117 11.6108C31.3914 11.5286 31.7259 11.4847 32.1208 11.4847C32.5157 11.4847 32.8503 11.5286 33.13 11.6108C33.4097 11.6931 33.6346 11.8302 33.8101 12.0112C33.9856 12.1922 34.1172 12.4335 34.194 12.7242ZM32.6857 12.6474H31.9124C31.7753 12.6474 31.6766 12.6639 31.6327 12.6968C31.5833 12.7297 31.5614 12.79 31.5614 12.8833V14.9071H32.3347C32.4718 14.9071 32.5651 14.8906 32.6144 14.8577C32.6638 14.8248 32.6857 14.7645 32.6857 14.6713V12.6474ZM38.9601 11.7315C38.7353 11.567 38.4226 11.4847 38.0113 11.4847C37.6877 11.4847 37.3806 11.5286 37.1009 11.6218C36.8157 11.715 36.5524 11.8522 36.3001 12.0386L35.9162 11.6054H35.1593V15.9492H36.6895V13.0478C36.6895 12.9381 36.7224 12.8613 36.7827 12.812C36.8486 12.7681 36.9583 12.7407 37.1228 12.7407H37.7645V15.9437H39.2947V12.4171C39.2947 12.1264 39.1795 11.896 38.9601 11.7315ZM42.048 14.6219H41.9602L41.2911 11.6108H39.7993L40.8578 15.9546H43.1504L44.2199 11.6108H42.7281L42.048 14.6219ZM46.2053 14.3422V14.8906C46.2876 14.9071 46.3808 14.9235 46.485 14.929C46.5947 14.94 46.7263 14.94 46.8909 14.94C47.1322 14.94 47.379 14.9235 47.6313 14.8852C47.8781 14.8468 48.1414 14.7919 48.4211 14.7151L48.613 15.7846C48.3278 15.8779 48.0262 15.9492 47.7081 15.9985C47.39 16.0479 47.0609 16.0698 46.7209 16.0698C46.3424 16.0698 46.0188 16.026 45.7501 15.9382C45.4759 15.8504 45.2565 15.7133 45.081 15.5323C44.9055 15.3459 44.7793 15.11 44.697 14.8193C44.6148 14.5287 44.5709 14.1831 44.5709 13.7773C44.5709 13.2343 44.6477 12.7955 44.8012 12.4555C44.9548 12.1209 45.1907 11.8741 45.5142 11.715C45.8378 11.556 46.2492 11.4792 46.7593 11.4792C47.2693 11.4792 47.6642 11.5231 47.9494 11.6108C48.2346 11.6986 48.4321 11.8467 48.5527 12.0551C48.6734 12.2635 48.7282 12.5487 48.7282 12.9162C48.7282 13.1904 48.6843 13.4153 48.6021 13.5963C48.5198 13.7773 48.3827 13.9253 48.1907 14.035C47.9988 14.1447 47.741 14.2215 47.4174 14.2709C47.0883 14.3202 46.6879 14.3422 46.2053 14.3422ZM46.2053 12.9875V13.5414H46.7154C46.9512 13.5414 47.1157 13.514 47.2035 13.4592C47.2913 13.4043 47.3406 13.3001 47.3406 13.152V12.6145H46.8305C46.5947 12.6145 46.4302 12.6419 46.3424 12.6913C46.2492 12.7462 46.2053 12.8449 46.2053 12.9875ZM51.2676 11.7425C51.0592 11.8631 50.8617 12.0167 50.6698 12.2087L50.2365 11.6108H49.4796V15.9546H51.0098V13.3659C51.0811 13.3111 51.1744 13.2617 51.295 13.2069C51.4157 13.152 51.5473 13.1027 51.6844 13.0533C51.8215 13.0094 51.9367 12.9765 52.03 12.9655L51.9258 11.4792C51.6954 11.5341 51.476 11.6218 51.2676 11.7425ZM56.6809 11.7041L56.1873 12.3293C56.2696 12.5377 56.3134 12.7955 56.3134 13.0972C56.3134 13.4811 56.2476 13.7882 56.116 14.0241C55.9844 14.2599 55.7705 14.4299 55.4798 14.5396C55.2768 14.6164 55.03 14.6658 54.7394 14.6877L54.7119 15.0058C55.041 15.0497 55.3152 15.1045 55.5291 15.1594C55.743 15.2142 55.9131 15.2855 56.0337 15.3733C56.1544 15.461 56.2421 15.5707 56.297 15.6969C56.3463 15.8285 56.3738 15.9821 56.3738 16.1686C56.3738 16.4647 56.308 16.706 56.1763 16.898C56.0447 17.09 55.8363 17.2271 55.5511 17.3203C55.2659 17.4081 54.8984 17.4574 54.4487 17.4574C54.1031 17.4574 53.7576 17.43 53.4176 17.3861C53.0775 17.3368 52.7539 17.2655 52.4413 17.1722L52.6333 16.0973C52.902 16.174 53.1598 16.2289 53.4066 16.2673C53.6534 16.3057 53.9002 16.3221 54.147 16.3221C54.3116 16.3221 54.4596 16.3166 54.5968 16.3057C54.7339 16.2947 54.871 16.2837 55.0026 16.2728V15.8724C54.4487 15.834 54.0483 15.7791 53.8125 15.7133C53.5766 15.6475 53.456 15.5652 53.456 15.461L53.7028 14.6658C53.5108 14.6383 53.3463 14.5945 53.1982 14.5396C52.9075 14.4299 52.6936 14.2544 52.562 14.0186C52.4303 13.7827 52.3645 13.4756 52.3645 13.0972C52.3645 12.7132 52.4303 12.4061 52.562 12.1703C52.6936 11.9344 52.9075 11.7644 53.1982 11.6492C53.4889 11.5341 53.8673 11.4792 54.3335 11.4792C54.679 11.4792 54.9752 11.5066 55.222 11.567L55.9569 11.002L56.6809 11.7041ZM54.8545 12.2854H54.1744C54.0373 12.2854 53.9386 12.3129 53.8892 12.3567C53.8399 12.4061 53.8125 12.4993 53.8125 12.631V13.8924H54.4816C54.6187 13.8924 54.7174 13.865 54.7723 13.8157C54.8271 13.7663 54.8545 13.6785 54.8545 13.5579V12.2854ZM58.7267 14.3422V14.8906C58.8089 14.9071 58.9022 14.9235 59.0064 14.929C59.1161 14.94 59.2477 14.94 59.4122 14.94C59.6536 14.94 59.9004 14.9235 60.1527 14.8852C60.3995 14.8468 60.6627 14.7919 60.9424 14.7151L61.1344 15.7846C60.8492 15.8779 60.5476 15.9492 60.2294 15.9985C59.9113 16.0479 59.5823 16.0698 59.2422 16.0698C58.8638 16.0698 58.5402 16.026 58.2714 15.9382C57.9972 15.8504 57.7778 15.7133 57.6023 15.5323C57.4268 15.3459 57.3007 15.11 57.2184 14.8193C57.1361 14.5287 57.0923 14.1831 57.0923 13.7773C57.0923 13.2343 57.169 12.7955 57.3226 12.4555C57.4762 12.1209 57.712 11.8741 58.0356 11.715C58.3592 11.556 58.7705 11.4792 59.2806 11.4792C59.7907 11.4792 60.1856 11.5231 60.4708 11.6108C60.756 11.6986 60.9534 11.8467 61.0741 12.0551C61.1947 12.2635 61.2496 12.5487 61.2496 12.9162C61.2496 13.1904 61.2057 13.4153 61.1234 13.5963C61.0412 13.7773 60.9041 13.9253 60.7121 14.035C60.5201 14.1447 60.2624 14.2215 59.9388 14.2709C59.6097 14.3202 59.2093 14.3422 58.7267 14.3422ZM58.7267 12.9875V13.5414H59.2367C59.4726 13.5414 59.6371 13.514 59.7249 13.4592C59.8126 13.4043 59.862 13.3001 59.862 13.152V12.6145H59.3519C59.1161 12.6145 58.9515 12.6419 58.8638 12.6913C58.7705 12.7462 58.7267 12.8449 58.7267 12.9875ZM66.2461 10.1464V15.9492H65.4892L65.204 15.5433C65.1985 15.5488 65.1985 15.5543 65.193 15.5543C65.0504 15.7353 64.8585 15.8724 64.6226 15.9546C64.3868 16.0369 64.1016 16.0808 63.767 16.0808C63.4434 16.0808 63.1692 16.0369 62.9443 15.9546C62.7195 15.8724 62.533 15.7353 62.3904 15.5488C62.2478 15.3623 62.1381 15.1265 62.0723 14.8358C62.0065 14.5451 61.9736 14.1941 61.9736 13.7773C61.9736 13.3659 62.0065 13.0149 62.0723 12.7242C62.1381 12.4335 62.2423 12.1922 62.3904 12.0112C62.533 11.8302 62.7195 11.6931 62.9443 11.6108C63.1692 11.5286 63.4434 11.4847 63.767 11.4847C64.1016 11.4847 64.3868 11.5286 64.6226 11.6163C64.6555 11.6273 64.683 11.6437 64.7159 11.6547V10.2671L66.2461 10.1464ZM64.7213 14.6822V12.6529H63.9645C63.8328 12.6529 63.7396 12.6694 63.6902 12.7023C63.6409 12.7352 63.6189 12.7955 63.6189 12.8888V14.9181H64.3648C64.502 14.9181 64.5952 14.9016 64.6446 14.8687C64.6939 14.8358 64.7213 14.7755 64.7213 14.6822Z" fill="black"/>
</svg>
