<svg width="72" height="20" viewBox="0 0 72 20" fill="none" xmlns="http://www.w3.org/2000/svg">
    <path d="M7.22143 9.76871C6.71136 10.4049 6.25066 11.0411 5.84479 11.6664C5.77898 11.7651 5.71865 11.8638 5.65832 11.9571C5.59799 12.0503 5.54314 12.1435 5.48281 12.2368C5.45539 12.2807 5.43345 12.3245 5.40603 12.3629C5.38409 12.3958 5.36215 12.4342 5.34021 12.4671C5.3073 12.5165 5.27988 12.5713 5.24697 12.6207C5.18116 12.7359 5.11534 12.8565 5.04953 12.9717C4.07875 11.8858 3.23412 10.7888 2.54306 9.72483C3.27251 8.6663 4.15005 7.58035 5.14277 6.52182C5.15373 6.53827 5.15922 6.56021 5.17019 6.57667C5.19213 6.62054 5.21955 6.6699 5.24149 6.71927C5.26891 6.77411 5.30182 6.82896 5.32924 6.8838C5.35118 6.92768 5.3786 6.97156 5.40054 7.01543C5.46636 7.1361 5.53766 7.25676 5.60896 7.37742C5.6309 7.4213 5.65832 7.46517 5.68574 7.50357L5.69123 7.50905C5.70768 7.53647 5.72413 7.5639 5.74059 7.59132C5.76253 7.62971 5.78995 7.67359 5.81189 7.71198C5.84479 7.76683 5.8777 7.82167 5.9161 7.87652C5.949 7.93137 5.9874 7.9917 6.0203 8.04654C6.05321 8.10139 6.0916 8.16172 6.13 8.21657C6.13 8.21657 6.13 8.21656 6.13 8.22205C6.19581 8.32626 6.26162 8.42498 6.33292 8.52919C6.38229 8.60049 6.42616 8.67179 6.47552 8.7376C6.54682 8.83633 6.61812 8.94053 6.68942 9.04474C6.69491 9.05571 6.70588 9.06668 6.71136 9.07216C6.74976 9.12153 6.78815 9.17637 6.82106 9.23122C6.83203 9.24219 6.83751 9.25864 6.84848 9.26961C6.88687 9.31897 6.91978 9.36833 6.95817 9.4177C6.99108 9.46706 7.02947 9.51642 7.06238 9.5603C7.07335 9.57126 7.07883 9.58772 7.0898 9.59869C7.12819 9.65353 7.17207 9.70838 7.21595 9.76322C7.22143 9.76322 7.22143 9.76871 7.22143 9.76871Z" fill="black"/>
    <path d="M14.0827 3.53272C14.0498 3.54917 14.0223 3.57111 13.9894 3.59305C13.9401 3.62595 13.8907 3.65338 13.8468 3.68629C13.8084 3.70822 13.7701 3.73565 13.7317 3.76307C13.7042 3.78501 13.6713 3.80146 13.6439 3.8234C13.5562 3.88373 13.4684 3.93858 13.3806 3.99891C13.3423 4.02633 13.2984 4.05375 13.26 4.08118C13.1229 4.17441 12.9858 4.27314 12.8486 4.37186C12.8212 4.3938 12.7883 4.41574 12.7609 4.43768C12.5086 4.62415 12.2563 4.81611 12.004 5.01356C11.9656 5.04098 11.9272 5.07389 11.8943 5.10131C11.8285 5.15068 11.7682 5.20004 11.7024 5.25488C11.6585 5.29328 11.6091 5.33167 11.5652 5.36458C11.5214 5.39748 11.4775 5.43588 11.4336 5.47427C11.3678 5.52911 11.302 5.58396 11.2362 5.63881C10.2818 4.82708 9.32203 4.12505 8.38965 3.53272C9.35494 2.77035 10.3147 2.11769 11.2362 1.59116C12.1631 2.11769 13.1174 2.77035 14.0827 3.53272Z" fill="black"/>
    <path d="M14.0443 16.2022C13.1009 16.9755 12.1521 17.6391 11.2362 18.1876C10.3202 17.6391 9.37689 16.97 8.42805 16.2022C8.49935 16.1528 8.57065 16.1089 8.64195 16.0596C8.67486 16.0376 8.71325 16.0102 8.74616 15.9883C8.88328 15.895 9.02588 15.7963 9.16299 15.6921C9.2672 15.6208 9.36592 15.544 9.47013 15.4672C9.54143 15.4124 9.61273 15.363 9.68403 15.3082C9.72791 15.2753 9.77178 15.2424 9.81566 15.2095C9.82115 15.204 9.82663 15.204 9.83212 15.1985C9.87599 15.1656 9.91987 15.1272 9.96923 15.0943C10.0899 15.001 10.2051 14.9078 10.3257 14.8146C10.3696 14.7762 10.419 14.7378 10.4628 14.7049C10.4958 14.6774 10.5287 14.65 10.5616 14.6226C10.6054 14.5897 10.6493 14.5513 10.6932 14.5129C10.8742 14.3593 11.0552 14.2058 11.2362 14.0467C11.4172 14.2058 11.5982 14.3593 11.7792 14.5129C11.823 14.5513 11.8669 14.5842 11.9108 14.6226C11.9437 14.65 11.9766 14.6774 12.0095 14.7049C12.0534 14.7433 12.1027 14.7817 12.1466 14.8146C12.2673 14.9133 12.3825 15.0065 12.5031 15.0943C12.547 15.1272 12.5909 15.1656 12.6402 15.1985C12.6457 15.204 12.6512 15.204 12.6567 15.2095C12.7006 15.2424 12.7444 15.2753 12.7883 15.3082C12.8596 15.363 12.9309 15.4179 13.0022 15.4672C13.1064 15.544 13.2052 15.6208 13.3094 15.6921C13.4465 15.7908 13.5891 15.8895 13.7262 15.9883C13.7591 16.0102 13.7975 16.0376 13.8304 16.0596C13.9017 16.1089 13.973 16.1583 14.0443 16.2022Z" fill="black"/>
    <path d="M19.9293 9.73032C19.2382 10.7943 18.3991 11.8967 17.4228 12.9772C16.8524 11.9406 16.1175 10.8547 15.2509 9.76871L15.2564 9.76322C15.3003 9.70838 15.3387 9.65353 15.3825 9.59869C15.3935 9.58772 15.399 9.57126 15.41 9.5603C15.4483 9.51093 15.4813 9.46157 15.5142 9.4177C15.5526 9.36833 15.5855 9.31897 15.6239 9.26961C15.6348 9.25864 15.6403 9.24219 15.6513 9.23122C15.6897 9.17637 15.7281 9.12701 15.761 9.07216C15.7665 9.06119 15.7774 9.05023 15.7829 9.04474C15.8542 8.94053 15.9255 8.84181 15.9968 8.7376C16.0462 8.6663 16.09 8.595 16.1394 8.52919C16.2107 8.42498 16.2765 8.32626 16.3423 8.22205C16.3423 8.22205 16.3423 8.22205 16.3423 8.21657C16.3807 8.16172 16.4136 8.10139 16.452 8.04654C16.4904 7.9917 16.5233 7.93137 16.5562 7.87652C16.5891 7.82167 16.6221 7.76683 16.6604 7.71198C16.6824 7.67359 16.7098 7.62971 16.7317 7.59132C16.7482 7.5639 16.7647 7.53647 16.7811 7.50905L16.7866 7.50357C16.814 7.45969 16.836 7.41581 16.8634 7.37742C16.9347 7.25676 17.0005 7.1361 17.0718 7.01543C17.0937 6.97156 17.1212 6.92768 17.1431 6.8838C17.1705 6.82896 17.2034 6.77411 17.2308 6.71927C17.2583 6.6699 17.2802 6.62603 17.3021 6.57667C17.3131 6.56021 17.3186 6.53827 17.3296 6.52182C18.3223 7.58583 19.1998 8.6663 19.9293 9.73032Z" fill="black"/>
    <path d="M8.43352 16.2022C8.15381 16.3886 7.87409 16.5641 7.59986 16.7287C7.56147 16.7506 7.51759 16.778 7.4792 16.8C7.42984 16.8329 7.37499 16.8603 7.32015 16.8932C7.27627 16.9206 7.23239 16.9426 7.18852 16.97C7.12819 17.0029 7.06786 17.0358 7.00753 17.0687C6.95816 17.0961 6.90332 17.1236 6.85396 17.151C6.83202 17.162 6.80459 17.1784 6.78266 17.1894C6.74975 17.2058 6.72232 17.2223 6.68942 17.2387C6.53036 17.321 6.37679 17.3978 6.22322 17.4746C6.12999 17.5185 6.03675 17.5623 5.94351 17.6062C5.90512 17.6227 5.86673 17.6446 5.82285 17.6611C5.76252 17.6885 5.70219 17.7159 5.64186 17.7378C5.60347 17.7543 5.56507 17.7708 5.52668 17.7872C5.17567 17.9353 4.83562 18.0614 4.50654 18.1656C4.46267 18.1821 4.41879 18.1931 4.37491 18.204C4.342 18.215 4.31458 18.2205 4.28167 18.2315C4.25973 18.2369 4.2378 18.2424 4.21586 18.2479C4.17747 18.2589 4.13907 18.2699 4.10068 18.2808C4.06777 18.2918 4.02938 18.2973 3.99647 18.3082C3.89775 18.3357 3.80451 18.3576 3.70579 18.3741C3.629 18.0943 3.58513 17.7817 3.58513 17.4472C3.58513 17.4088 3.58513 17.3704 3.58513 17.3375C3.58513 17.332 3.58513 17.3265 3.58513 17.321C3.58513 17.2881 3.58513 17.2552 3.59061 17.2223C3.59061 17.1784 3.5961 17.14 3.5961 17.0961C3.5961 17.0797 3.5961 17.0687 3.60158 17.0523C3.60707 17.0194 3.60707 16.9865 3.61255 16.9481C3.61804 16.9206 3.61804 16.8877 3.62352 16.8603V16.8548C3.62352 16.8384 3.629 16.8164 3.629 16.8C3.63449 16.7671 3.63997 16.7287 3.64546 16.6958C3.65094 16.6738 3.65094 16.6519 3.65643 16.63C3.65643 16.6135 3.66191 16.6025 3.66191 16.5861C3.6674 16.5641 3.6674 16.5422 3.67288 16.5258C3.67837 16.5038 3.68385 16.4764 3.68385 16.449C3.68934 16.4215 3.69482 16.3941 3.7003 16.3667V16.3612C3.7003 16.3502 3.70579 16.3393 3.70579 16.3283C3.70579 16.3283 3.70579 16.3283 3.70579 16.3228C3.71127 16.2954 3.71676 16.2735 3.72224 16.246C3.74418 16.1418 3.77161 16.0376 3.79903 15.9279C3.81 15.895 3.81548 15.8566 3.82645 15.8237C3.83194 15.8073 3.83742 15.7908 3.83742 15.7744C3.8429 15.7524 3.84839 15.7305 3.85936 15.7031C3.86484 15.6756 3.87581 15.6482 3.8813 15.6208C3.88678 15.5989 3.89227 15.5769 3.90324 15.555C3.90872 15.5276 3.91969 15.5056 3.92517 15.4782C3.93066 15.4562 3.94163 15.4343 3.94711 15.4124C4.05132 15.0888 4.17198 14.7597 4.32007 14.4197C4.33104 14.3977 4.33652 14.3758 4.34749 14.3538C4.35846 14.3264 4.37491 14.2935 4.38588 14.2661C4.39685 14.2442 4.40233 14.2222 4.4133 14.2058C4.42976 14.1619 4.4517 14.118 4.47363 14.0741C4.49557 14.0248 4.51751 13.9809 4.53945 13.9315C4.64366 13.7121 4.75335 13.4928 4.86853 13.2679C4.89047 13.224 4.9124 13.1856 4.93434 13.1417C4.93983 13.1363 4.94531 13.1253 4.94531 13.1143C4.96177 13.0869 4.97273 13.0595 4.98919 13.0321C5.00564 13.0046 5.01661 12.9827 5.03307 12.9553C5.39505 13.3556 5.77349 13.7615 6.16838 14.1564C6.92525 14.9133 7.67665 15.5879 8.43352 16.2022Z" fill="black"/>
    <path d="M15.2509 9.76322C15.207 9.81807 15.1631 9.87291 15.1248 9.92776C15.0864 9.97712 15.048 10.0265 15.0096 10.0758C14.9109 10.202 14.8066 10.3336 14.7024 10.4598C14.675 10.4927 14.6476 10.5311 14.6147 10.564C14.5544 10.6408 14.4885 10.7175 14.4227 10.7888C14.3898 10.8327 14.3514 10.8711 14.313 10.915C14.2801 10.9534 14.2472 10.9973 14.2088 11.0357C14.2033 11.0411 14.2033 11.0411 14.1979 11.0466C14.1595 11.0905 14.1211 11.1399 14.0772 11.1837C14.0443 11.2166 14.0169 11.255 13.984 11.2879C13.9401 11.3373 13.8962 11.3867 13.8523 11.436C13.8194 11.4744 13.781 11.5128 13.7481 11.5512C13.4081 11.9296 13.0516 12.3026 12.6786 12.6756C12.6073 12.7469 12.5415 12.8127 12.4702 12.8785C12.4263 12.9224 12.3824 12.9662 12.3386 13.0046C12.2673 13.0704 12.2015 13.1363 12.1302 13.2021C12.0698 13.2569 12.015 13.3118 11.9546 13.3666C11.823 13.4873 11.6969 13.6079 11.5652 13.7231C11.5214 13.7615 11.4775 13.7999 11.4336 13.8383C11.3623 13.8986 11.2965 13.9644 11.2252 14.0248C11.1539 13.9644 11.0881 13.9041 11.0168 13.8383C10.9729 13.7999 10.929 13.7615 10.8852 13.7231C10.7535 13.6079 10.6274 13.4873 10.4957 13.3666C10.4354 13.3118 10.3806 13.2569 10.3202 13.2021C10.2489 13.1363 10.1831 13.0704 10.1118 13.0046C10.0679 12.9607 10.0241 12.9224 9.98019 12.8785C9.90889 12.8127 9.84308 12.7414 9.77178 12.6756C9.39882 12.3026 9.04232 11.9296 8.70228 11.5512C8.66388 11.5128 8.63098 11.4744 8.59807 11.436C8.55419 11.3867 8.51032 11.3373 8.46644 11.2879C8.43353 11.255 8.40611 11.2166 8.3732 11.1837C8.33481 11.1399 8.29093 11.0905 8.25254 11.0466C8.24705 11.0411 8.24705 11.0411 8.24157 11.0357C8.20866 10.9973 8.17027 10.9534 8.13736 10.915C8.09897 10.8711 8.06606 10.8327 8.02767 10.7888C7.96185 10.7121 7.90152 10.6353 7.83571 10.564C7.80829 10.5311 7.78086 10.4927 7.74795 10.4598C7.64375 10.3281 7.53954 10.202 7.44082 10.0758C7.40242 10.0265 7.36403 9.97712 7.32564 9.92776C7.28176 9.87291 7.23789 9.81807 7.19949 9.76322C7.23789 9.71386 7.28176 9.65902 7.32564 9.60965C7.35855 9.57126 7.39146 9.52738 7.42436 9.48899C7.47921 9.42318 7.53405 9.35188 7.59438 9.28606C7.63278 9.24219 7.67117 9.19282 7.70956 9.14895C7.7315 9.12152 7.75344 9.09958 7.77538 9.07216C7.79732 9.04474 7.81925 9.0228 7.84119 8.99538C7.88507 8.94602 7.92895 8.89117 7.97282 8.84181C8.26899 8.50176 8.57613 8.16172 8.89972 7.82716C8.95457 7.77231 9.00941 7.71198 9.06426 7.65713C9.17395 7.54196 9.28913 7.43226 9.39882 7.31709C9.44818 7.26772 9.49754 7.21836 9.54691 7.17449C9.5853 7.13609 9.62369 7.0977 9.66208 7.05931C9.77178 6.9551 9.87598 6.85089 9.98567 6.74669C10.035 6.70281 10.0844 6.65345 10.1338 6.60957C10.2325 6.51633 10.3312 6.42858 10.4299 6.33534C10.5012 6.26953 10.5725 6.20371 10.6493 6.13789C10.6877 6.10499 10.7261 6.07208 10.7645 6.03917C10.8413 5.97336 10.9181 5.90754 10.9948 5.84173C11.0716 5.77591 11.1484 5.71009 11.2252 5.64428C11.834 6.15983 12.4428 6.71926 13.0406 7.31709C13.8578 8.11784 14.5927 8.94053 15.2509 9.76322Z" fill="black"/>
    <path d="M18.5088 2.68807C18.5088 2.7155 18.5088 2.74292 18.5033 2.77583C18.5033 2.7868 18.5033 2.79777 18.5033 2.80874C18.5033 2.83616 18.4978 2.86907 18.4978 2.89649C18.4978 2.90746 18.4978 2.91843 18.4978 2.9294C18.4978 2.95682 18.4923 2.97876 18.4923 3.00618C18.4923 3.02264 18.4923 3.03361 18.4868 3.05006C18.4868 3.07748 18.4813 3.09942 18.4759 3.12684C18.4759 3.14878 18.4704 3.16524 18.4704 3.18717C18.4484 3.36268 18.4155 3.54367 18.3771 3.73015C18.3717 3.75209 18.3662 3.77403 18.3607 3.79597C18.3552 3.82339 18.3497 3.84533 18.3442 3.87275C18.3387 3.91114 18.3278 3.94405 18.3168 3.98244C18.3113 4.00987 18.3058 4.03729 18.2949 4.06471C18.2894 4.08665 18.2839 4.11407 18.2784 4.13601C18.2565 4.21828 18.2345 4.30055 18.2071 4.38282C18.1961 4.41573 18.1852 4.44864 18.1742 4.48703C18.1632 4.51994 18.1578 4.55284 18.1468 4.58026C18.1413 4.60769 18.1303 4.63511 18.1194 4.66253C18.1139 4.68996 18.1029 4.7119 18.0919 4.73932C18.0865 4.75577 18.081 4.77223 18.0755 4.7832C18.0645 4.81062 18.059 4.83804 18.0481 4.86547C18.0426 4.8874 18.0316 4.90934 18.0261 4.93128C18.0152 4.9587 18.0042 4.99161 17.9932 5.01903C17.9768 5.06291 17.9603 5.10679 17.9439 5.15066C17.8945 5.28229 17.8396 5.41941 17.7793 5.55653C17.7683 5.58395 17.7574 5.61137 17.7464 5.6388C17.73 5.67719 17.7135 5.71558 17.697 5.74849C17.6806 5.7814 17.6641 5.81979 17.6477 5.8527C17.6312 5.8856 17.6148 5.92399 17.5983 5.9569C17.5709 6.01723 17.5435 6.07756 17.5106 6.13789C17.4941 6.1708 17.4777 6.20371 17.4667 6.23662C17.4228 6.32986 17.3735 6.42309 17.3296 6.51633C17.1102 6.28598 16.8853 6.05014 16.655 5.81979C15.8103 4.97516 14.9438 4.20731 14.0827 3.52722C14.132 3.49431 14.1814 3.46689 14.2308 3.43398C14.2637 3.41204 14.2966 3.39559 14.3295 3.37365C14.3953 3.33526 14.4556 3.29687 14.5215 3.25847C14.5434 3.24202 14.5708 3.23105 14.5928 3.2146C14.6641 3.17072 14.7354 3.12684 14.8067 3.08845C14.856 3.06103 14.8999 3.03361 14.9493 3.00618C14.9986 2.97876 15.0425 2.95134 15.0919 2.92391C15.1193 2.90746 15.1522 2.891 15.1796 2.87455C15.3058 2.80874 15.4264 2.74292 15.5526 2.67711C15.5964 2.65517 15.6458 2.62774 15.6897 2.60581C15.7719 2.56193 15.8542 2.52354 15.942 2.48514C15.9749 2.46869 16.0023 2.45772 16.0352 2.44127C16.1504 2.38642 16.2601 2.33706 16.3753 2.2877C16.4191 2.26576 16.463 2.24931 16.5069 2.22737C16.5508 2.21091 16.5946 2.18898 16.6385 2.17252C16.6824 2.15607 16.7263 2.13413 16.7701 2.11768C16.814 2.10122 16.8579 2.08477 16.9018 2.06831C17.0334 2.01895 17.1596 1.96959 17.2912 1.92571C17.3351 1.90926 17.3735 1.89829 17.4173 1.88184C17.4886 1.8599 17.5544 1.83796 17.6257 1.81602C17.6367 1.81054 17.6477 1.81054 17.6587 1.80505C17.6751 1.79957 17.697 1.79408 17.7135 1.7886C17.8122 1.76118 17.9055 1.73375 17.9987 1.70633C18.0206 1.70084 18.0481 1.69536 18.07 1.68988C18.0974 1.68439 18.1303 1.67342 18.1578 1.66794C18.1961 1.65697 18.2345 1.65148 18.2729 1.64051C18.3113 1.62954 18.3497 1.62406 18.3881 1.61309C18.4813 1.93668 18.5197 2.29867 18.5088 2.68807Z" fill="black"/>
    <path d="M8.39513 3.53272C7.53405 4.21281 6.66748 4.98066 5.82285 5.82529C5.5925 6.05564 5.36763 6.28599 5.14824 6.52183C5.09888 6.42859 5.05501 6.33536 5.01113 6.24212C4.99467 6.20921 4.97822 6.1763 4.96725 6.1434C4.93983 6.08306 4.9124 6.02273 4.8795 5.9624C4.86304 5.9295 4.84659 5.8911 4.83014 5.8582C4.81368 5.82529 4.79723 5.7869 4.78077 5.75399C4.76432 5.7156 4.74787 5.6772 4.73141 5.6443C4.72044 5.61687 4.70947 5.58945 4.6985 5.56203C4.63817 5.42491 4.58881 5.29328 4.53397 5.15617C4.51751 5.11229 4.50106 5.06841 4.48461 5.02454C4.47364 4.99711 4.46267 4.9642 4.4517 4.93678C4.44073 4.91484 4.43524 4.89291 4.42976 4.87097C4.41879 4.84354 4.40782 4.81612 4.40234 4.7887C4.39685 4.77224 4.39137 4.75579 4.38588 4.74482C4.37491 4.7174 4.36943 4.69546 4.35846 4.66804C4.34749 4.64061 4.342 4.61319 4.33104 4.58577C4.32007 4.55286 4.3091 4.51995 4.30361 4.49253C4.29264 4.45962 4.28168 4.42123 4.27071 4.38832C4.24328 4.30605 4.22134 4.22378 4.1994 4.14151C4.19392 4.11957 4.18844 4.09215 4.18295 4.07021C4.17747 4.04279 4.1665 4.01537 4.16101 3.98794C4.15004 3.94955 4.14456 3.91664 4.13359 3.87825C4.12811 3.85083 4.12262 3.82889 4.11714 3.80147C4.11165 3.77953 4.10617 3.75759 4.10068 3.73565C4.06229 3.54917 4.02938 3.36818 4.00744 3.19268C4.00196 3.17074 4.00196 3.15428 4.00196 3.13234C3.99647 3.10492 3.99648 3.08298 3.99099 3.05556C3.99099 3.03911 3.98551 3.02814 3.98551 3.01168C3.98002 2.98426 3.98002 2.96232 3.98002 2.9349C3.98002 2.92393 3.98002 2.91296 3.98002 2.90199C3.98002 2.87457 3.97454 2.84166 3.97454 2.81424C3.97454 2.80327 3.97454 2.7923 3.97454 2.78133C3.97454 2.75391 3.96905 2.721 3.96905 2.69358C3.95808 2.30417 3.99647 1.94218 4.08423 1.62408C5.34569 1.88734 6.83202 2.54549 8.39513 3.53272Z" fill="black"/>
    <path d="M18.7611 18.3741C18.6678 18.3521 18.5691 18.3302 18.4704 18.3083C18.4375 18.3028 18.4046 18.2918 18.3662 18.2808C18.3278 18.2699 18.2894 18.2589 18.251 18.2479C18.229 18.2424 18.2071 18.237 18.1852 18.2315C18.1523 18.2205 18.1248 18.215 18.0919 18.204C18.0481 18.1931 18.0042 18.1766 17.9603 18.1656C17.6312 18.0614 17.2912 17.9353 16.9402 17.7872C16.9018 17.7708 16.8634 17.7543 16.825 17.7379C16.7647 17.7104 16.7043 17.6885 16.644 17.6611C16.6056 17.6446 16.5672 17.6227 16.5233 17.6062C16.4301 17.5623 16.3369 17.5185 16.2436 17.4746C16.0901 17.3978 15.9365 17.321 15.7774 17.2388C15.7445 17.2223 15.7171 17.2058 15.6842 17.1894C15.6623 17.1784 15.6348 17.162 15.6129 17.151C15.5635 17.1236 15.5087 17.0962 15.4593 17.0687C15.399 17.0358 15.3387 17.0029 15.2783 16.97C15.2345 16.9426 15.1906 16.9206 15.1467 16.8932C15.0973 16.8658 15.0425 16.8329 14.9876 16.8C14.9493 16.778 14.9054 16.7506 14.867 16.7287C14.5928 16.5641 14.313 16.3886 14.0333 16.2022C14.7847 15.5879 15.5416 14.9078 16.2765 14.1729C16.6714 13.778 17.0499 13.3776 17.4118 12.9717C18.6185 15.1327 19.1285 17.0742 18.7611 18.3741Z" fill="black"/>
    <path d="M5.04953 12.9717C3.85388 15.1326 3.3493 17.0796 3.71677 18.3795C2.39497 18.6592 1.31451 18.5056 0.661837 17.853C-0.720284 16.4709 0.135314 13.224 2.54854 9.73027C3.23412 10.7943 4.07875 11.8912 5.04953 12.9717Z" fill="#FF434E"/>
    <path d="M18.3936 1.61853C17.1321 1.88727 15.6458 2.54542 14.0827 3.53265C13.1174 2.77029 12.1576 2.11763 11.2362 1.5911C14.1265 -0.0652494 16.6659 -0.520472 17.8451 0.664204C18.1029 0.921981 18.2839 1.24557 18.3936 1.61853Z" fill="#FF434E"/>
    <path d="M11.2362 1.5911C10.3148 2.11762 9.35494 2.77029 8.38965 3.53265C6.82654 2.54542 5.34021 1.88726 4.07875 1.61852C4.18296 1.24008 4.36395 0.921974 4.62173 0.664197C5.8064 -0.514994 8.34578 -0.0652563 11.2362 1.5911Z" fill="#FF434E"/>
    <path d="M16.655 5.82523C16.8853 6.05558 17.1102 6.28594 17.3296 6.52177C17.3186 6.53823 17.3131 6.56017 17.3021 6.57662C17.2802 6.6205 17.2528 6.66986 17.2308 6.71922C17.2034 6.77407 17.1705 6.82891 17.1431 6.88376C17.1212 6.92764 17.0937 6.97151 17.0718 7.01539C17.0334 7.0812 17.0005 7.14702 16.9621 7.21284C16.9292 7.26768 16.9018 7.32253 16.8689 7.37737C16.8469 7.42125 16.8195 7.46513 16.7921 7.50352L16.7866 7.509C16.7701 7.53643 16.7537 7.56385 16.7372 7.59127C16.7153 7.62967 16.6879 7.67354 16.6659 7.71193C16.633 7.76678 16.6001 7.82163 16.5617 7.87647C16.5288 7.93132 16.4904 7.99165 16.4575 8.0465C16.4246 8.10134 16.3862 8.16167 16.3478 8.21652C16.3478 8.21652 16.3478 8.21652 16.3478 8.222C16.282 8.32621 16.2162 8.42493 16.1449 8.52914C16.0955 8.60044 16.0517 8.67174 16.0023 8.73756C15.931 8.83628 15.8597 8.94049 15.7884 9.04469C15.7829 9.05566 15.7719 9.06663 15.7665 9.07212C15.7281 9.12148 15.6897 9.17633 15.6568 9.23117C15.6458 9.24214 15.6403 9.25859 15.6293 9.26956C15.5909 9.31893 15.558 9.36829 15.5196 9.41765C15.4867 9.46701 15.4483 9.51637 15.4154 9.56025C15.4045 9.57122 15.399 9.58767 15.388 9.59864C15.3496 9.65349 15.3058 9.70833 15.2619 9.76318L15.2564 9.76866C14.5982 8.94597 13.8633 8.12328 13.0571 7.31156C12.4592 6.71374 11.8504 6.15431 11.2417 5.63875C12.196 4.82703 13.1558 4.125 14.0882 3.53266C14.9438 4.21275 15.8103 4.9806 16.655 5.82523Z" fill="#FF434E"/>
    <path d="M21.816 17.853C21.1578 18.5111 20.0828 18.6592 18.761 18.3795C19.1285 17.0796 18.6239 15.1381 17.4283 12.9717C18.3991 11.8857 19.2437 10.7888 19.9348 9.72478C22.3425 13.224 23.1981 16.4654 21.816 17.853Z" fill="#FF434E"/>
    <path d="M11.2362 5.63875C10.6274 6.15431 10.0186 6.71374 9.42077 7.31156C8.61453 8.1178 7.87959 8.94049 7.22144 9.76866L7.21595 9.76318C7.17207 9.70833 7.13368 9.65349 7.08981 9.59864C7.07884 9.58767 7.07335 9.57122 7.06238 9.56025C7.02399 9.51089 6.99108 9.46153 6.95818 9.41765C6.91978 9.36829 6.88688 9.31893 6.84848 9.26956C6.83751 9.25859 6.83203 9.24214 6.82106 9.23117C6.78267 9.17633 6.74428 9.12696 6.71137 9.07212C6.70588 9.06115 6.69491 9.05018 6.68943 9.04469C6.61813 8.94049 6.54683 8.84177 6.47553 8.73756C6.42617 8.66626 6.38229 8.59496 6.33293 8.52914C6.26163 8.42493 6.19581 8.32621 6.13 8.222C6.13 8.222 6.13 8.222 6.13 8.21652C6.09161 8.16167 6.0587 8.10134 6.02031 8.0465C5.98191 7.99165 5.94901 7.93132 5.9161 7.87647C5.88319 7.82163 5.85028 7.76678 5.81189 7.71193C5.78995 7.67354 5.76253 7.62967 5.74059 7.59127C5.72414 7.56385 5.70768 7.53643 5.69123 7.509L5.68575 7.50352C5.65832 7.45964 5.63638 7.41577 5.60896 7.37737C5.57605 7.32253 5.54315 7.26768 5.51572 7.21284C5.47733 7.14702 5.43894 7.0812 5.40603 7.01539C5.38409 6.97151 5.35667 6.92764 5.33473 6.88376C5.30731 6.82891 5.2744 6.77407 5.24698 6.71922C5.21955 6.66986 5.19762 6.62598 5.17568 6.57662C5.16471 6.56017 5.15922 6.53823 5.14825 6.52177C5.36764 6.29142 5.59251 6.05558 5.82286 5.82523C6.66749 4.9806 7.53406 4.21275 8.39514 3.53266C9.32204 4.125 10.2818 4.82703 11.2362 5.63875Z" fill="#FF434E"/>
    <path d="M11.2362 18.193C8.19221 20.0249 5.49378 20.5679 4.25974 19.3393C4.00197 19.0815 3.82097 18.7579 3.71677 18.385C3.75516 18.3795 3.79355 18.3685 3.83194 18.3576C3.87034 18.3521 3.90324 18.3411 3.94164 18.3301C3.96357 18.3247 3.98551 18.3192 4.00197 18.3137C4.03487 18.3082 4.06778 18.2972 4.10617 18.2863C4.14457 18.2753 4.18296 18.2643 4.22135 18.2534C4.24329 18.2479 4.26523 18.2424 4.28717 18.2369C4.32007 18.2259 4.3475 18.2205 4.3804 18.2095C4.4188 18.1985 4.45719 18.1875 4.49558 18.1711C4.83014 18.0669 5.17567 17.9407 5.52669 17.7872C5.56508 17.7707 5.60347 17.7543 5.64186 17.7378C5.7022 17.7104 5.76253 17.6884 5.82286 17.661C5.86125 17.6446 5.89964 17.6226 5.94352 17.6062C6.03676 17.5623 6.12999 17.5184 6.22323 17.4745C6.3768 17.3978 6.53037 17.321 6.68942 17.2387C6.7333 17.2168 6.78266 17.1893 6.82654 17.1619C6.84299 17.151 6.85945 17.1455 6.8759 17.1345C6.91978 17.1126 6.96366 17.0851 7.00753 17.0632C7.12271 17.0029 7.2324 16.9371 7.34758 16.8712C7.38597 16.8493 7.42436 16.8274 7.46275 16.8054C7.63826 16.7012 7.81926 16.5915 8.00025 16.4763C8.03864 16.4544 8.07703 16.427 8.11542 16.3996C8.21963 16.3337 8.32384 16.2679 8.42805 16.1966C9.37688 16.9754 10.3202 17.6446 11.2362 18.193Z" fill="#0088E0"/>
    <path d="M19.9293 9.7248C19.1998 8.66627 18.3223 7.58031 17.3296 6.52178C17.3789 6.42854 17.4228 6.33531 17.4667 6.24207C17.4831 6.20916 17.4996 6.17625 17.5106 6.14334C17.538 6.08301 17.5654 6.02268 17.5983 5.96235C17.6148 5.92944 17.6312 5.89105 17.6477 5.85815C17.6641 5.82524 17.6806 5.78684 17.697 5.75394C17.7135 5.71554 17.7299 5.67715 17.7464 5.64424C17.7574 5.61682 17.7683 5.5894 17.7793 5.56198C17.8396 5.42486 17.889 5.29323 17.9438 5.15611C17.9603 5.11224 17.9767 5.06836 17.9932 5.02448C18.0042 4.99706 18.0151 4.96415 18.0261 4.93673C18.0371 4.91479 18.0426 4.89285 18.048 4.87092C18.059 4.84349 18.07 4.81607 18.0755 4.78865C18.081 4.77219 18.0864 4.75574 18.0919 4.74477C18.1029 4.71735 18.1084 4.69541 18.1193 4.66798C18.1303 4.64056 18.1358 4.61314 18.1468 4.58572C18.1577 4.55281 18.1687 4.5199 18.1742 4.49248C18.1852 4.45957 18.1961 4.42118 18.2071 4.38827C18.2345 4.306 18.2565 4.22373 18.2784 4.14146C18.2839 4.11952 18.2894 4.0921 18.2949 4.07016C18.3003 4.04274 18.3113 4.01532 18.3168 3.98789C18.3278 3.9495 18.3332 3.91659 18.3442 3.8782C18.3497 3.85078 18.3552 3.82884 18.3607 3.80142C18.3661 3.77948 18.3716 3.75754 18.3771 3.7356C18.4155 3.54912 18.4484 3.36813 18.4704 3.19262C18.4758 3.17069 18.4758 3.15423 18.4758 3.13229C18.4813 3.10487 18.4813 3.08293 18.4868 3.05551C18.4868 3.03906 18.4923 3.02809 18.4923 3.01163C18.4978 2.98421 18.4978 2.96227 18.4978 2.93485C18.4978 2.92388 18.4978 2.91291 18.4978 2.90194C18.4978 2.87452 18.5033 2.84161 18.5033 2.81419C18.5033 2.80322 18.5033 2.79225 18.5033 2.78128C18.5033 2.75386 18.5088 2.72095 18.5088 2.69352C18.5197 2.30412 18.4813 1.94213 18.3936 1.62403C19.7154 1.34431 20.7958 1.49788 21.4485 2.15055C22.7593 3.46137 22.0573 6.43951 19.9293 9.7248Z" fill="#0088E0"/>
    <path d="M5.14822 6.52179C4.15002 7.58581 3.27796 8.66628 2.54851 9.72481C0.420483 6.43953 -0.281546 3.46138 1.02928 2.14507C1.68743 1.48692 2.76241 1.33884 4.0842 1.61855C3.99096 1.93666 3.95806 2.29864 3.96903 2.68805C3.96903 2.71547 3.96903 2.7429 3.97451 2.7758C3.97451 2.78677 3.97451 2.79774 3.97451 2.80871C3.97451 2.83614 3.97999 2.86904 3.97999 2.89647C3.97999 2.90744 3.97999 2.9184 3.97999 2.92937C3.97999 2.9568 3.98548 2.97874 3.98548 3.00616C3.98548 3.02261 3.98548 3.03358 3.99096 3.05004C3.99096 3.07746 3.99645 3.0994 4.00193 3.12682C4.00193 3.14876 4.00742 3.16521 4.00742 3.18715C4.02936 3.36266 4.06226 3.54365 4.10066 3.73013C4.10614 3.75207 4.11163 3.774 4.11711 3.79594C4.12259 3.82337 4.12808 3.8453 4.13356 3.87273C4.13905 3.91112 4.15002 3.94403 4.16099 3.98242C4.16647 4.00984 4.17196 4.03727 4.18293 4.06469C4.18841 4.08663 4.19389 4.11405 4.19938 4.13599C4.22132 4.21826 4.24326 4.30053 4.27068 4.38279C4.28165 4.4157 4.29262 4.44861 4.30359 4.487C4.31456 4.51991 4.32004 4.55282 4.33101 4.58024C4.33649 4.60766 4.34746 4.63509 4.35843 4.66251C4.36392 4.68993 4.37489 4.71187 4.38586 4.73929C4.39134 4.75575 4.39683 4.7722 4.40231 4.78317C4.41328 4.8106 4.41876 4.83802 4.42973 4.86544C4.43522 4.88738 4.44619 4.90932 4.45167 4.93126C4.46264 4.95868 4.47361 4.99159 4.48458 5.01901C4.50103 5.06289 4.51749 5.10676 4.53394 5.15064C4.5833 5.28227 4.63815 5.41939 4.69848 5.5565C4.70945 5.58393 4.72042 5.61135 4.73139 5.63877C4.74784 5.67716 4.76429 5.71556 4.78075 5.74846C4.7972 5.78137 4.81366 5.81976 4.83011 5.85267C4.84656 5.88558 4.86302 5.92397 4.87947 5.95688C4.90689 6.01721 4.93432 6.07754 4.96722 6.13787C4.98368 6.17078 5.00013 6.20369 5.0111 6.23659C5.05498 6.33532 5.09886 6.42855 5.14822 6.52179Z" fill="#0088E0"/>
    <path d="M11.2362 14.0467C11.1704 14.1015 11.1045 14.1618 11.0442 14.2167C10.9894 14.266 10.9345 14.3099 10.8797 14.3593C10.8248 14.4086 10.77 14.4525 10.7151 14.5019C10.6548 14.5512 10.6 14.6006 10.5396 14.65C10.4793 14.6993 10.4244 14.7487 10.3641 14.7926C10.2325 14.8968 10.1063 15.001 9.9802 15.0997C9.93632 15.1326 9.89244 15.171 9.84308 15.2039C9.8376 15.2094 9.83211 15.2094 9.82663 15.2149C9.78275 15.2478 9.73887 15.2807 9.695 15.3136C9.61273 15.3739 9.53046 15.4397 9.44819 15.5001C9.35495 15.5659 9.2672 15.6317 9.17396 15.6975C9.03684 15.7962 8.89424 15.895 8.75713 15.9937C8.72422 16.0156 8.68583 16.0431 8.65292 16.065C8.58162 16.1144 8.51032 16.1582 8.43902 16.2076C7.68763 15.5933 6.93075 14.9132 6.19581 14.1783C5.80092 13.7834 5.42249 13.383 5.0605 12.9772C5.6309 11.9406 6.36584 10.8546 7.23241 9.76866C7.27628 9.82351 7.32016 9.87835 7.35855 9.9332C7.39694 9.98256 7.43534 10.0319 7.47373 10.0813C7.57245 10.2074 7.67666 10.3391 7.78087 10.4652C7.80829 10.4981 7.83571 10.5365 7.86862 10.5694C7.95637 10.6736 8.03864 10.7778 8.1264 10.882C8.17576 10.9369 8.21964 10.9917 8.269 11.0466L8.27448 11.0521C8.32384 11.1124 8.37869 11.1672 8.42805 11.2276C8.42805 11.2331 8.43354 11.2331 8.43354 11.2385C8.4829 11.2989 8.53774 11.3592 8.59259 11.414C8.64195 11.4689 8.68583 11.5183 8.73519 11.5731C9.07524 11.9461 9.42625 12.319 9.79372 12.6865C9.86502 12.7578 9.93084 12.8236 10.0021 12.8894C10.046 12.9333 10.0899 12.9772 10.1338 13.0156C10.2051 13.0814 10.2709 13.1472 10.3422 13.213C10.4025 13.2678 10.4574 13.3227 10.5177 13.3775C10.589 13.4433 10.6603 13.5147 10.7371 13.5805C10.7864 13.6243 10.8358 13.6682 10.8797 13.7121C10.94 13.7669 11.0003 13.8218 11.0607 13.8766C11.1155 13.937 11.1758 13.9918 11.2362 14.0467Z" fill="#0088E0"/>
    <path d="M18.7556 18.3795C18.6514 18.7579 18.4704 19.076 18.2126 19.3338C16.984 20.5624 14.2801 20.0194 11.2362 18.1875C12.1521 17.6391 13.0954 16.97 14.0443 16.2021C14.1485 16.2734 14.2527 16.3392 14.3569 16.405C14.3953 16.4325 14.4337 16.4544 14.4721 16.4818C14.6531 16.597 14.8341 16.7067 15.0096 16.8109C15.048 16.8328 15.0864 16.8548 15.1247 16.8767C15.2399 16.9425 15.3496 17.0083 15.4648 17.0687C15.5087 17.0906 15.5525 17.118 15.5964 17.14C15.6129 17.1509 15.6293 17.1564 15.6458 17.1674C15.6897 17.1948 15.739 17.2168 15.7829 17.2442C15.942 17.3265 16.0955 17.4032 16.2491 17.48C16.3423 17.5239 16.4356 17.5678 16.5288 17.6117C16.5672 17.6281 16.6056 17.65 16.6495 17.6665C16.7098 17.6939 16.7701 17.7213 16.8305 17.7433C16.8689 17.7597 16.9072 17.7762 16.9456 17.7926C17.3021 17.9407 17.6477 18.0724 17.9767 18.1766C18.0151 18.1875 18.0535 18.1985 18.0919 18.215C18.1248 18.2259 18.1577 18.2314 18.1852 18.2424C18.2071 18.2479 18.229 18.2534 18.251 18.2588C18.2894 18.2698 18.3278 18.2808 18.3662 18.2917C18.3991 18.3027 18.4375 18.3082 18.4704 18.3192C18.4923 18.3247 18.5142 18.3301 18.5307 18.3356C18.5691 18.3466 18.602 18.3521 18.6404 18.363C18.6788 18.363 18.7172 18.374 18.7556 18.3795Z" fill="#0088E0"/>
    <path d="M17.4228 12.9717C17.0608 13.3721 16.6824 13.7779 16.2875 14.1728C15.5471 14.9132 14.7957 15.5878 14.0443 16.2021C13.973 16.1527 13.9017 16.1089 13.8304 16.0595C13.7975 16.0376 13.7591 16.0101 13.7262 15.9882C13.5891 15.895 13.4465 15.7962 13.3093 15.692C13.2161 15.6262 13.1284 15.5604 13.0351 15.4946C12.9528 15.4343 12.8706 15.3739 12.7883 15.3081C12.7444 15.2752 12.7006 15.2423 12.6567 15.2094C12.6512 15.2039 12.6457 15.2039 12.6402 15.1984C12.5963 15.1655 12.5525 15.1271 12.5031 15.0942C12.377 14.9955 12.2453 14.8913 12.1192 14.7871C12.0589 14.7377 12.004 14.6938 11.9437 14.6445C11.8833 14.5951 11.8285 14.5458 11.7682 14.4964C11.7133 14.4525 11.6585 14.4032 11.6036 14.3538C11.5488 14.3044 11.4939 14.2606 11.4391 14.2112C11.3733 14.1564 11.3075 14.1015 11.2471 14.0412C11.3075 13.9863 11.3678 13.9315 11.4281 13.8821C11.4885 13.8328 11.5488 13.7724 11.6091 13.7176C11.6585 13.6737 11.7078 13.6298 11.7517 13.586C11.823 13.5201 11.8998 13.4543 11.9711 13.383C12.0314 13.3282 12.0863 13.2733 12.1466 13.2185C12.2179 13.1527 12.2837 13.0869 12.355 13.021C12.3989 12.9772 12.4428 12.9333 12.4867 12.8949C12.558 12.8291 12.6238 12.7578 12.6951 12.692C13.0625 12.3245 13.4136 11.9515 13.7536 11.5786C13.803 11.5237 13.8468 11.4744 13.8962 11.4195C13.951 11.3592 14.0004 11.2989 14.0553 11.244C14.0607 11.2385 14.0607 11.2385 14.0607 11.2331C14.1101 11.1727 14.1649 11.1179 14.2143 11.0575L14.2198 11.0521C14.2692 10.9972 14.313 10.9424 14.3624 10.8875C14.4501 10.7833 14.5379 10.6791 14.6202 10.5749C14.6476 10.542 14.675 10.5036 14.7079 10.4707C14.8121 10.3391 14.9163 10.2129 15.0151 10.0868C15.0535 10.0374 15.0918 9.98805 15.1302 9.93869C15.1741 9.88384 15.218 9.82899 15.2564 9.77415C16.123 10.8546 16.8524 11.9406 17.4228 12.9717Z" fill="#0088E0"/>
    <path d="M27.8993 12V2.54545H30.466V6.23864H33.8638V2.54545H36.4305V12H33.8638V8.30682H30.466V12H27.8993ZM37.1185 2.54545H39.9807L41.8273 6.38636H41.9012L43.7478 2.54545H46.61L43.1384 9.02699V12H40.5901V9.02699L37.1185 2.54545ZM47.3037 12V2.54545H51.3847C52.0864 2.54545 52.7004 2.68395 53.2267 2.96094C53.7529 3.23793 54.1623 3.62725 54.4546 4.12891C54.747 4.63056 54.8932 5.21686 54.8932 5.88778C54.8932 6.56487 54.7424 7.15116 54.4408 7.64666C54.1423 8.14216 53.7222 8.52379 53.1805 8.79155C52.6419 9.0593 52.0125 9.19318 51.2923 9.19318H48.8548V7.19886H50.7753C51.0769 7.19886 51.3339 7.14654 51.5463 7.0419C51.7617 6.93419 51.9263 6.78184 52.0402 6.58487C52.1572 6.3879 52.2156 6.15554 52.2156 5.88778C52.2156 5.61695 52.1572 5.38613 52.0402 5.19531C51.9263 5.00142 51.7617 4.85369 51.5463 4.75213C51.3339 4.64749 51.0769 4.59517 50.7753 4.59517H49.8705V12H47.3037ZM55.692 12V2.54545H62.5059V4.61364H58.2587V6.23864H62.155V8.30682H58.2587V9.93182H62.4874V12H55.692ZM63.6359 12V2.54545H67.7168C68.4185 2.54545 69.0325 2.67318 69.5588 2.92862C70.0851 3.18407 70.4944 3.55185 70.7868 4.03196C71.0792 4.51207 71.2254 5.08759 71.2254 5.75852C71.2254 6.43561 71.0746 7.00651 70.7729 7.47124C70.4744 7.93596 70.0543 8.28681 69.5127 8.52379C68.9741 8.76077 68.3447 8.87926 67.6245 8.87926H65.187V6.88494H67.1075C67.4091 6.88494 67.6661 6.84801 67.8784 6.77415C68.0939 6.69721 68.2585 6.57564 68.3724 6.40945C68.4893 6.24325 68.5478 6.02628 68.5478 5.75852C68.5478 5.48769 68.4893 5.26764 68.3724 5.09837C68.2585 4.92602 68.0939 4.79983 67.8784 4.71981C67.6661 4.63672 67.4091 4.59517 67.1075 4.59517H66.2026V12H63.6359ZM69.1756 7.66051L71.5393 12H68.7509L66.4427 7.66051H69.1756Z" fill="black"/>
    <path d="M32.8797 15.9545H31.5378C31.5283 15.8435 31.5029 15.7428 31.4617 15.6524C31.422 15.562 31.3665 15.4842 31.2952 15.4192C31.2254 15.3526 31.1405 15.3018 31.0406 15.2669C30.9406 15.2305 30.8272 15.2122 30.7003 15.2122C30.4783 15.2122 30.2903 15.2661 30.1365 15.374C29.9842 15.4819 29.8684 15.6365 29.7891 15.838C29.7114 16.0394 29.6725 16.2813 29.6725 16.5636C29.6725 16.8618 29.7121 17.1117 29.7915 17.3131C29.8724 17.513 29.9889 17.6636 30.1412 17.7652C30.2935 17.8651 30.4767 17.9151 30.6908 17.9151C30.813 17.9151 30.9224 17.9 31.0192 17.8699C31.1159 17.8381 31.2 17.7929 31.2714 17.7342C31.3427 17.6755 31.4006 17.605 31.445 17.5225C31.491 17.4384 31.522 17.344 31.5378 17.2393L32.8797 17.2489C32.8639 17.4551 32.806 17.6652 32.7061 17.8794C32.6061 18.0919 32.4642 18.2886 32.2802 18.4694C32.0978 18.6487 31.8717 18.793 31.6021 18.9025C31.3324 19.0119 31.0192 19.0666 30.6623 19.0666C30.215 19.0666 29.8137 18.9707 29.4584 18.7787C29.1046 18.5868 28.8247 18.3045 28.6185 17.9317C28.4139 17.559 28.3116 17.1029 28.3116 16.5636C28.3116 16.0212 28.4162 15.5643 28.6256 15.1932C28.835 14.8204 29.1173 14.5389 29.4726 14.3485C29.8279 14.1566 30.2245 14.0607 30.6623 14.0607C30.97 14.0607 31.2531 14.1027 31.5117 14.1868C31.7702 14.2708 31.997 14.3937 32.1921 14.5555C32.3872 14.7157 32.5443 14.9132 32.6632 15.148C32.7822 15.3827 32.8544 15.6516 32.8797 15.9545Z" fill="#9FCC3E"/>
    <path d="M38.1267 16.5636C38.1267 17.1061 38.0212 17.5637 37.8102 17.9365C37.5993 18.3076 37.3145 18.5892 36.9561 18.7811C36.5976 18.9714 36.1979 19.0666 35.7569 19.0666C35.3128 19.0666 34.9115 18.9707 34.553 18.7787C34.1961 18.5852 33.9122 18.3029 33.7012 17.9317C33.4919 17.559 33.3872 17.1029 33.3872 16.5636C33.3872 16.0212 33.4919 15.5643 33.7012 15.1932C33.9122 14.8204 34.1961 14.5389 34.553 14.3485C34.9115 14.1566 35.3128 14.0607 35.7569 14.0607C36.1979 14.0607 36.5976 14.1566 36.9561 14.3485C37.3145 14.5389 37.5993 14.8204 37.8102 15.1932C38.0212 15.5643 38.1267 16.0212 38.1267 16.5636ZM36.7657 16.5636C36.7657 16.2718 36.7269 16.0259 36.6491 15.8261C36.573 15.6246 36.4596 15.4723 36.3089 15.3692C36.1598 15.2646 35.9758 15.2122 35.7569 15.2122C35.538 15.2122 35.3532 15.2646 35.2026 15.3692C35.0535 15.4723 34.94 15.6246 34.8623 15.8261C34.7862 16.0259 34.7481 16.2718 34.7481 16.5636C34.7481 16.8555 34.7862 17.1021 34.8623 17.3036C34.94 17.5034 35.0535 17.6557 35.2026 17.7604C35.3532 17.8635 35.538 17.9151 35.7569 17.9151C35.9758 17.9151 36.1598 17.8635 36.3089 17.7604C36.4596 17.6557 36.573 17.5034 36.6491 17.3036C36.7269 17.1021 36.7657 16.8555 36.7657 16.5636Z" fill="#1CA593"/>
    <path d="M42.8811 14.1273V19H41.7771L40.0164 16.4399H39.9879V19H38.665V14.1273H39.788L41.5201 16.6778H41.5582V14.1273H42.8811Z" fill="#188CC5"/>
    <path d="M44.7655 14.1273L45.7648 17.5629H45.8029L46.8022 14.1273H48.2963L46.688 19H44.8797L43.2713 14.1273H44.7655Z" fill="#0E5AA8"/>
    <path d="M48.6919 19V14.1273H52.2037V15.1932H50.0148V16.0307H52.0229V17.0966H50.0148V17.9341H52.1942V19H48.6919Z" fill="#6C459E"/>
    <path d="M52.7861 19V14.1273H54.8894C55.251 14.1273 55.5675 14.1931 55.8387 14.3248C56.1099 14.4564 56.3209 14.646 56.4716 14.8934C56.6223 15.1408 56.6976 15.4375 56.6976 15.7832C56.6976 16.1322 56.6199 16.4264 56.4645 16.6659C56.3106 16.9055 56.0941 17.0863 55.8149 17.2084C55.5373 17.3306 55.213 17.3916 54.8418 17.3916H53.5855V16.3638H54.5753C54.7308 16.3638 54.8632 16.3447 54.9727 16.3067C55.0837 16.267 55.1685 16.2044 55.2272 16.1187C55.2875 16.0331 55.3177 15.9212 55.3177 15.7832C55.3177 15.6437 55.2875 15.5302 55.2272 15.443C55.1685 15.3542 55.0837 15.2891 54.9727 15.2479C54.8632 15.2051 54.7308 15.1837 54.5753 15.1837H54.109V19H52.7861ZM55.6412 16.7635L56.8594 19H55.4223L54.2327 16.7635H55.6412ZM60.3522 15.7357C60.3316 15.6516 60.2991 15.5778 60.2547 15.5144C60.2103 15.4493 60.1547 15.3946 60.0881 15.3502C60.0231 15.3042 59.947 15.2701 59.8597 15.2479C59.7741 15.2241 59.6797 15.2122 59.5766 15.2122C59.3545 15.2122 59.165 15.2654 59.0079 15.3716C58.8525 15.4779 58.7335 15.631 58.651 15.8308C58.5702 16.0307 58.5297 16.2718 58.5297 16.5541C58.5297 16.8396 58.5686 17.0839 58.6463 17.2869C58.724 17.49 58.8398 17.6454 58.9937 17.7533C59.1475 17.8611 59.3387 17.9151 59.5671 17.9151C59.7685 17.9151 59.9359 17.8857 60.0691 17.827C60.2039 17.7683 60.3046 17.6851 60.3713 17.5772C60.4379 17.4693 60.4712 17.3424 60.4712 17.1965L60.6996 17.2203H59.5861V16.2781H61.7465V16.9538C61.7465 17.398 61.6521 17.7779 61.4633 18.0935C61.2762 18.4076 61.0176 18.6487 60.6877 18.8168C60.3594 18.9833 59.9826 19.0666 59.5575 19.0666C59.0833 19.0666 58.6669 18.9659 58.3084 18.7645C57.95 18.563 57.67 18.2759 57.4686 17.9032C57.2687 17.5304 57.1688 17.0871 57.1688 16.5732C57.1688 16.1703 57.2298 15.8134 57.352 15.5025C57.4757 15.1916 57.647 14.9291 57.8659 14.715C58.0848 14.4992 58.3378 14.3366 58.6249 14.2272C58.912 14.1162 59.2197 14.0607 59.548 14.0607C59.8367 14.0607 60.1048 14.1019 60.3522 14.1844C60.6013 14.2653 60.8209 14.3811 61.0113 14.5317C61.2032 14.6808 61.3579 14.8577 61.4752 15.0623C61.5926 15.2669 61.664 15.4914 61.6894 15.7357H60.3522Z" fill="#9D489D"/>
    <path d="M62.2896 19V14.1273H65.8014V15.1932H63.6125V16.0307H65.6206V17.0966H63.6125V17.9341H65.7919V19H62.2896Z" fill="#E6429B"/>
    <path d="M68.2586 19H66.3838V14.1273H68.2396C68.7408 14.1273 69.1738 14.2248 69.5387 14.4199C69.9051 14.6134 70.1874 14.8926 70.3857 15.2574C70.5855 15.6207 70.6855 16.0561 70.6855 16.5636C70.6855 17.0712 70.5863 17.5074 70.3881 17.8722C70.1898 18.2355 69.909 18.5146 69.5458 18.7097C69.1826 18.9032 68.7535 19 68.2586 19ZM67.7066 17.877H68.211C68.4521 17.877 68.6575 17.8381 68.8273 17.7604C68.9986 17.6827 69.1286 17.5487 69.2175 17.3583C69.3079 17.168 69.3531 16.9031 69.3531 16.5636C69.3531 16.2242 69.3071 15.9593 69.2151 15.769C69.1247 15.5786 68.9914 15.4446 68.8154 15.3669C68.6409 15.2891 68.4268 15.2503 68.173 15.2503H67.7066V17.877Z" fill="#FC1693"/>
    <rect x="28" y="12" width="44" height="1" fill="black"/>
</svg>
